<svg xmlns="http://www.w3.org/2000/svg" viewBox="0 332 480 388" width="480" height="388" aria-hidden="true"><!-- IA: autômato escritor. Faixa da capa (y 332 a 720). Traço em currentColor; preenchimentos em var(--capa-faixa). --><style>.cz-ln{fill:none;stroke:currentColor;stroke-linecap:round;stroke-linejoin:round}.cz-w1{stroke-width:1.8px}.cz-w2{stroke-width:1.2px}.cz-w3{stroke-width:.7px}.cz-gh{fill:none;stroke:currentColor;stroke-width:1.3px;stroke-linecap:round;stroke-dasharray:2.5 5.5;opacity:.8}.cz-ghs{fill:none;stroke:currentColor;stroke-width:1.1px;stroke-linecap:round;opacity:.8}.cz-fi{fill:currentColor;stroke:none}</style><path class="cz-ln cz-w3" d="M89.8 679.2 L92.5 677.7 M89.8 682.1 L92.5 680.5 L95.2 678.9 L97.9 677.3 M89.8 684.4 L93.1 682.6 L96.3 680.9 L99.5 679.1 L102.7 677.3 M95.1 684.1 L98.2 682.3 L101.3 680.4 L104.4 678.6 L107.5 676.7 M99.7 683.7 L102.9 681.9 L106.2 680.1 L109.5 678.3 L112.7 676.5 M105.1 683.3 L108.5 681.3 L111.9 679.4 L115.3 677.4 L118.7 675.5 M110.5 683.2 L113.7 681.4 L116.9 679.6 L120 677.7 L123.2 675.8 M114.5 682.8 L117.7 680.9 L120.9 679 L124.2 677.1 L127.4 675.3 M120.3 682 L123.5 680.1 L126.7 678.2 L129.8 676.3 L133 674.4 M124.8 682 L128 680.1 L131.2 678.2 L134.5 676.3 L137.7 674.4 M130.2 681.9 L133.4 680 L136.7 678 L139.9 676 L143.2 674.1 M134.7 681.1 L138 679.1 L141.3 677.3 L144.7 675.4 L148 673.6 M140.8 680.8 L143.8 679 L146.8 677.2 L149.8 675.4 L152.8 673.6 M145.4 680.3 L148.5 678.5 L151.6 676.7 L154.6 674.9 L157.7 673.1 M149.7 680.9 L153 678.9 L156.3 676.9 L159.6 674.9 L162.9 673 M154.7 679.6 L157.8 677.9 L160.9 676.2 L164 674.4 L167.2 672.6 M159.6 679.8 L163 677.8 L166.4 675.9 L169.8 674 L173.2 672 M164.9 679.2 L168.2 677.3 L171.5 675.3 L174.8 673.3 L178.1 671.4 M170 678.9 L173.4 676.9 L176.9 675 L180.3 673.1 L183.7 671.1 M175.9 678.2 L179.1 676.3 L182.3 674.5 L185.5 672.6 L188.8 670.8 M181.2 678.5 L184.3 676.6 L187.4 674.7 L190.4 672.8 L193.5 671 M185.8 678 L189.2 676.1 L192.5 674.2 L195.8 672.2 L199.1 670.2 M190.4 677.9 L193.8 675.8 L197.3 673.8 L200.7 671.8 L204.2 669.9 M195.5 677.2 L198.7 675.4 L201.9 673.7 L205.1 671.9 L208.3 670.1 M200 677.1 L203.2 675.3 L206.5 673.4 L209.7 671.5 L213 669.7 M205.7 676.2 L209 674.4 L212.2 672.5 L215.5 670.5 L218.7 668.6 M209.9 676.3 L213.1 674.4 L216.4 672.6 L219.6 670.7 L222.8 668.8 M214.7 675.7 L218.1 673.9 L221.4 672 L224.7 670 L228 668.1 M220.3 675 L223.4 673.1 L226.5 671.3 L229.6 669.4 L232.7 667.6 M225.5 674.7 L228.6 673 L231.7 671.3 L234.8 669.6 L237.9 667.9 M229.6 674.8 L233.1 672.9 L236.6 670.9 L240.1 669 L243.6 667.1 M235.9 674.3 L239 672.6 L242 670.8 L245.1 669.1 L248.1 667.3 M239.8 674.1 L243 672.2 L246.2 670.3 L249.4 668.4 L252.7 666.5 M245.8 673.3 L249 671.4 L252.2 669.6 L255.4 667.7 L258.6 665.9 M250.4 672.7 L253.6 670.9 L256.9 669.1 L260.2 667.3 L263.5 665.5 M255.8 672.7 L259 670.8 L262.3 668.8 L265.6 666.9 L268.8 665 M260.3 673.1 L263.6 671.2 L266.9 669.3 L270.1 667.3 L273.4 665.3 M264.9 672.8 L268.3 670.8 L271.7 668.7 L275.1 666.7 L278.5 664.6 M269.7 671.8 L272.8 670 L276 668.2 L279.1 666.5 L282.3 664.7 M274.7 671.6 L277.8 669.7 L281 667.8 L284.2 666 L287.4 664.2 M279.5 671.4 L282.7 669.4 L286 667.4 L289.3 665.5 L292.6 663.6 M283.4 671 L286.6 669.1 L289.8 667.1 L293.1 665.3 L296.3 663.4 M289.9 670.5 L293.1 668.7 L296.3 666.9 L299.5 665 L302.7 663.2 M294.4 670.3 L297.7 668.4 L301 666.5 L304.3 664.5 L307.5 662.6 M298.6 670.1 L301.9 668.1 L305.3 666.1 L308.7 664.2 L312.1 662.3 M304.2 669.3 L307.4 667.5 L310.7 665.6 L313.9 663.8 L317.1 661.9 M308.9 669.6 L312.1 667.7 L315.3 665.8 L318.5 663.9 L321.8 662 M314.4 668.5 L317.6 666.7 L320.8 664.9 L324 663.1 L327.1 661.3 M318.6 668.4 L322.1 666.5 L325.6 664.6 L329.1 662.7 L332.5 660.7 M324.4 667.8 L327.5 666 L330.7 664.2 L333.9 662.4 L337.1 660.6 M330.2 667.6 L333.3 665.8 L336.4 664 L339.5 662.3 L342.6 660.6 M335.2 667.3 L338.3 665.5 L341.5 663.7 L344.6 662 L347.7 660.2 M339.7 667.1 L343 665.2 L346.2 663.3 L349.5 661.4 L352.7 659.5 M344.7 666.6 L347.9 664.7 L351 662.9 L354.2 661 L357.4 659.2 M350.6 666.1 L353.8 664.4 L357.1 662.6 L360.3 660.8 L363.5 658.9 M355.1 666 L358.2 664.2 L361.3 662.3 L364.4 660.5 L367.5 658.6 M359.9 665.5 L363 663.6 L366.2 661.7 L369.4 659.8 L372.6 657.9 M364.7 665.1 L368 663.3 L371.2 661.5 L374.5 659.7 L377.7 657.9 M369.2 665 L372.3 663.1 L375.4 661.2 L378.6 659.4 L381.8 657.6 M373.2 664.9 L376.6 662.9 L380 660.8 L383.5 658.8 L386.9 656.8 M378.4 664.8 L381.1 663.1 L383.9 661.5 L386.7 659.8 L389.5 658.2 L392.2 656.6 M384.3 663.9 L387.6 662.1 L390.8 660.3 L394 658.3 L397.2 656.4 M389 663.6 L392.2 661.8 L395.3 659.9 L398.5 658 L401.7 656.1 M394.1 663.3 L397.4 661.4 L400.7 659.5 L404 657.6 L407.3 655.8 M398.3 663.3 L401.7 661.4 L405.1 659.4 L408.4 657.5 L411.7 655.5 M403.7 662.4 L406.9 660.6 L410.1 658.8 L413.2 657 L416.4 655.1 M408.8 662.6 L412.1 660.8 L415.3 658.9 L418.5 657 L421.8 655 M413.7 661.7 L416.8 659.9 L420 658.1 L423.2 656.3 L426.4 654.4 M419.6 661.5 L422.8 659.6 L426 657.7 L429.2 655.7 L432.3 653.8 M423.8 661.5 L427.1 659.5 L430.4 657.5 L433.8 655.6 L437.2 653.7 M428.8 660.3 L431.9 658.5 L435.1 656.7 L438.2 655 L441.4 653.3 M433.2 660.6 L436.1 658.9 L439 657.2 L441.9 655.4 M438.9 660.4 L440.7 659.4 L442.5 658.4"></path><path class="cz-ln cz-w2" d="M71.1 522.8 L76.1 522.5 L81 522.2 L86 521.9 L91 521.5 L96 521.2 L101 520.9 L105.9 520.7 L110.9 520.5 L115.9 520.1 L120.9 519.7 L125.8 519.3 L130.8 518.9 L135.8 518.5 L140.8 518 L145.7 517.5 L150.7 517.1 L155.7 516.8 L160.6 516.5 L165.6 516.2 L170.6 515.8 L175.6 515.4 L180.5 515 L185.5 514.7 L190.5 514.3 L195.5 513.8 L200.4 513.3 L205.4 512.9 L210.4 512.6 L215.3 512.3 L220.3 512 L225.3 511.7 L230.3 511.4 L235.3 511.2 L240.3 511 L245.2 510.6 L250.2 510.2 L255.2 509.8 L260.1 509.5 L265.1 509.2 L270.1 508.9 L275.1 508.5 L280.1 508.2 L285 508 L290 507.8 L295 507.5 L300 507.2 L305 506.8 L309.9 506.4 L314.9 506.1 L319.9 505.7 L324.8 505.2 L329.8 504.8 L334.8 504.4 L339.8 504 L344.7 503.8 L349.7 503.5 L354.7 503.1 L359.7 502.7 L364.6 502.3 L369.6 501.9 L374.6 501.5 L379.6 501 L384.5 500.5 L389.5 500.1 L394.5 499.8 L399.4 499.5 L404.4 499.1 L409.4 498.8 L414.4 498.5 L419.4 498.2 L424.4 498 L424.7 502.9 L425.2 507.8 L425.6 512.6 L425.9 517.5 L426.2 522.4 L426.5 527.2 L426.8 532.1 L427.2 536.9 L427.4 541.8 L427.6 546.7 L427.8 551.5 L428 556.4 L428.4 561.2 L428.8 566.1 L429.1 571 L429.4 575.8 L429.8 580.7 L430.3 585.5 L430.7 590.4 L431 595.2 L431.3 600.1 L431.5 605 L431.9 609.8 L432.3 614.7 L432.7 619.5 L433 624.4 L433.4 629.2 L433.8 634.1 L434.3 638.9 L434.8 643.8 L435.2 648.6 L435.4 653.7 L430.3 654.1 L425.3 654.5 L420.3 654.9 L415.3 655.2 L410.3 655.4 L405.4 655.7 L400.4 656.1 L395.4 656.5 L390.5 657 L385.5 657.3 L380.5 657.6 L375.5 657.9 L370.5 658.3 L365.6 658.6 L360.6 658.8 L355.6 658.9 L350.6 659.2 L345.6 659.5 L340.7 659.9 L335.7 660.2 L330.7 660.5 L325.7 660.9 L320.8 661.3 L315.8 661.7 L310.8 662.1 L305.8 662.3 L300.9 662.6 L295.9 662.9 L290.9 663.3 L285.9 663.7 L281 664 L276 664.4 L271 664.8 L266 665.3 L261.1 665.8 L256.1 666.2 L251.1 666.6 L246.2 666.9 L241.2 667.3 L236.2 667.7 L231.2 668 L226.3 668.2 L221.3 668.6 L216.3 669 L211.3 669.4 L206.4 669.9 L201.4 670.2 L196.4 670.5 L191.4 670.9 L186.5 671.3 L181.5 671.6 L176.5 671.8 L171.5 671.9 L166.5 672.2 L161.6 672.5 L156.6 672.9 L151.6 673.2 L146.6 673.5 L141.6 673.9 L136.7 674.3 L131.7 674.7 L126.7 675 L121.7 675.2 L116.8 675.4 L111.8 675.7 L106.8 676.1 L101.8 676.5 L96.9 676.8 L91.9 677.1 L86.9 677.6 L82 678.1 L81.6 673.4 L81.2 668.5 L80.9 663.6 L80.6 658.8 L80.2 653.9 L79.8 649.1 L79.5 644.2 L79.2 639.4 L78.9 634.5 L78.5 629.6 L78 624.8 L77.5 619.9 L77.2 615.1 L76.8 610.2 L76.5 605.4 L76.1 600.5 L75.8 595.7 L75.5 590.8 L75.3 585.9 L75.1 581.1 L74.8 576.2 L74.5 571.4 L74.1 566.5 L73.8 561.6 L73.5 556.8 L73.2 551.9 L72.8 547.1 L72.4 542.2 L72.1 537.3 L72 532.5 L71.7 527.6 L71.4 522.8 Z" style="fill: var(--capa-faixa)"></path><path class="cz-ln cz-w2" d="M96.3 545.5 L97.3 545.7 L98.4 545.9 L99.2 546.7 L100.1 547.6 L100.8 548.7 L101.4 549.9 L101.7 550.9 L102 552 L102.1 553.1 L102.1 555 L102 553 L102.1 551 L102.3 549.1 L102.8 548 L103.3 547 L104.1 546.3 L104.9 545.7 L105.9 545.5 L106.8 545.3 L107.8 545.5 L108.8 545.6 L110.5 546.7 L111.1 547.5 L111.7 548.4 L112.1 550.3 L112.4 552.2 L112.5 553.9 L112.3 552.9 L112.1 551.9 L112.1 550.8 L112.4 549.7 L112.6 548.6 L113.1 547.4 L113.6 546.2 L114.5 545.3 L115.3 544.5 L116.3 544.2 L117.3 543.9 L118.3 544.3 L119.3 544.7 L120.1 545.8 L121 546.8 L122 548.2 L122.5 549.5 L122.5 549.7 L122.3 549 L122.4 547.9 L122.9 546.8 L124.1 545.3 L124.9 544.6 L125.8 543.9 L126.7 543.4 L127.7 542.9 L128.7 543.5 L129.7 544.2 L130.5 545.1 L131.3 546 L131.8 547.2 L132.4 548.3 L132.6 549.3 L132.9 550.3 L132.9 551.2 L132.8 550.6 L132.8 548.9 L133.4 547.3 L134 545.9 L134.5 544.4 L135.4 543.8 L136.2 543.2 L137.2 543.1 L138.2 543 L139.2 543.4 L140.2 543.7 L141.7 544.8 L142.6 546.4 L143.1 548 L143.1 549.1 L143.1 550.1 L143.1 551.1 L143.2 549.3 L143.5 547.5 L143.7 545.7 L144.3 544.6 L144.9 543.6 L145.8 542.8 L146.7 542.1 L147.6 542 L148.6 541.9 L149.6 542.5 L150.5 543 L151.3 544 L152.1 545 L152.5 545.9 L153 546.9 L153.2 548.5 L153.6 550.1 L153.4 548.2 L153.2 547.2 L153.4 545.6 L154.1 544 L155.4 542.8 L156.3 542.3 L157.1 541.8 L158.1 541.6 L159.1 541.5 L160.1 542 L161 542.5 L161.8 543.7 L162.5 545 L163.4 546.6 L163.7 548.4 L163.7 549.1 L163.6 548.3 L163.7 546.3 L164.1 545.1 L164.4 543.8 L165.1 542.8 L165.7 541.8 L166.6 541 L167.5 540.2 L168.5 540.3 L169.6 540.4 L170.5 541.1 L171.5 541.8 L172.9 543.1 L173.6 544.1 L173.9 545.5 L173.8 546.3 L173.7 546.1 L174 544.9 L174.8 543.3 L175.5 542 L176.1 540.7 L177.1 540.2 L178 539.7 L179 539.8 L180 539.9 L181 540.6 L181.9 541.3 L182.6 542.4 L183.3 543.5 L183.7 544.5 L184.1 545.5 L184.3 546.7 L184.2 546.6 L184.1 547.2 L184.2 545.3 L184.3 543.4 L184.7 542.5 L185.1 541.6 L186.6 540.3 L187.5 539.9 L188.5 539.5 L189.5 539.6 L190.5 539.6 L191.4 540.1 L192.3 540.6 L193 541.6 L193.7 542.6 L194.1 544.5 L194.6 546.4 L194.7 547.4 L194.6 548.5 L194.4 546.7 L194.3 545.7 L194.5 544.6 L194.6 543.5 L195.1 542.3 L195.5 541.1 L196.2 540.1 L197 539.1 L198 538.7 L198.9 538.3 L199.9 538.5 L201 538.8 L201.9 539.5 L202.8 540.3 L203.4 541.5 L204 542.6 L204.6 542.7 L204.7 543 L204.6 543.5 L204.6 543.2 L205 541.9 L205.5 541 L205.9 540.1 L206.7 539.2 L207.5 538.4 L208.4 537.7 L209.3 537 L210.4 537.5 L211.4 538 L212.3 538.9 L213.1 539.7 L213.8 540.9 L214.4 542 L214.7 543 L215 544 L215.1 545.1 L215 544.7 L214.9 543.2 L215.1 542.1 L215.3 541.1 L215.8 540.2 L216.4 539.3 L217.1 538.6 L217.9 537.9 L219.9 537.5 L221.9 537.8 L222.7 538.3 L223.5 538.9 L224.1 539.8 L224.7 540.7 L225 541.7 L225.3 542.6 L225.3 544 L225.4 545.1 L225.4 546.3 L225.4 544.6 L225.6 542.6 L225.7 540.7 L226.3 539.5 L226.8 538.4 L227.6 537.5 L228.4 536.6 L229.3 536.4 L230.3 536.2 L231.3 536.5 L232.3 536.9 L233.1 537.7 L233.9 538.5 L234.4 539.4 L235 540.3 L235.3 541.8 L235.6 543.3 L235.7 543.8 L235.6 542.3 L235.4 540.8 L235.5 540.2 L236 539 L237.2 537.4 L238 536.7 L238.8 536 L239.8 535.8 L240.8 535.5 L241.8 535.9 L242.7 536.3 L243.6 537.4 L244.4 538.6 L244.9 539.5 L245.4 540.5 L245.7 541.4 L245.9 542.4 L245.9 543.2 L245.8 542.6 L245.8 540.8 L246.1 539.7 L246.4 538.5 L246.9 537.5 L247.5 536.5 L248.4 535.9 L249.3 535.3 L250.2 535 L251.2 534.6 L252.2 535.2 L253.2 535.8 L254.8 536.9 L255.7 538.6 L256.1 540.3 L256.1 541.4 L256 541.4 L256.1 540 L256.8 538.5 L257.4 537 L257.9 535.5 L258.8 534.8 L259.7 534.1 L260.7 534 L261.7 534 L262.7 534.5 L263.6 535.1 L264.4 536 L265.2 537 L265.7 537.9 L266.1 538.9 L266.5 540 L266.4 540.1 L266.3 541.1 L266.3 540 L266.4 538.9 L266.7 537.5 L267 536.1 L268.3 534.8 L269.2 534.2 L270.1 533.7 L271.2 533.6 L272.2 533.5 L273.2 534 L274.1 534.5 L274.9 535.5 L275.6 536.5 L276.1 537.6 L276.5 538.8 L276.8 540.7 L277 542.6 L276.7 541.2 L276.5 540.3 L276.6 539.3 L276.7 538.3 L277.1 537.1 L277.4 535.9 L278.1 534.8 L278.8 533.8 L279.7 533.3 L280.6 532.8 L281.6 532.9 L282.7 533 L283.6 533.5 L284.5 533.9 L285.2 534.9 L285.9 535.9 L286.7 536.4 L286.9 537.9 L286.9 538.7 L286.8 538.4 L287.1 537.1 L287.5 536 L287.9 535 L288.5 534 L289.2 533 L290.1 532.1 L291 531.3 L292 531.4 L293 531.6 L294 532.5 L294.9 533.4 L295.6 534.5 L296.3 535.6 L296.7 536.5 L297.1 537.5 L297.3 538.6 L297.2 538.4 L297.1 537.2 L297.3 535.3 L298.2 534 L298.9 533.2 L299.7 532.4 L300.6 532 L301.6 531.6 L302.6 531.7 L303.6 531.7 L304.4 532.2 L305.3 532.8 L306 533.8 L306.7 534.8 L307 535.9 L307.4 537 L307.6 538.5 L307.5 538.9 L307.6 539.6 L307.7 537.6 L307.8 535.6 L308.2 534.4 L308.6 533.2 L309.4 532.2 L310.1 531.3 L311 530.9 L312 530.5 L313 530.8 L314 531 L314.9 531.6 L315.7 532.2 L316.9 533.6 L317.3 535 L317.6 536.3 L317.9 537.4 L317.7 535.8 L317.7 535.5 L318.1 534.1 L318.6 533.1 L319 532.2 L319.8 531.3 L320.5 530.5 L321.5 530.1 L322.4 529.6 L323.4 529.9 L324.4 530.1 L325.3 531.1 L326.2 532.1 L326.9 533.6 L327.5 535.2 L328 536.1 L328.1 537 L328 536.6 L327.9 535.1 L328.1 534.1 L328.3 533 L328.9 532.1 L329.4 531.1 L331 530 L331.9 529.5 L332.9 529 L333.9 529.4 L334.9 529.8 L335.8 530.4 L336.6 531 L337.2 532 L337.8 532.9 L338 533.9 L338.3 534.9 L338.4 536.3 L338.3 536.3 L338.3 535 L338.5 533.9 L338.7 532.8 L339.2 531.7 L339.8 530.5 L340.6 529.6 L341.4 528.7 L342.4 528.4 L343.4 528.2 L344.4 528.6 L345.4 529 L346.2 529.8 L347 530.6 L348.1 532.2 L348.5 533.3 L348.5 533.4 L348.5 535 L348.6 534 L348.8 532.6 L349 531.1 L349.6 530.3 L350.1 529.4 L351 528.7 L351.8 528 L352.8 527.7 L353.8 527.5 L354.8 527.9 L355.8 528.3 L356.7 529.3 L357.5 530.2 L358 531.4 L358.6 532.6 L358.9 534.5 L359.2 536.4 L359.1 537.5 L358.9 536.1 L358.7 534.6 L358.8 532.8 L359.1 531.7 L359.4 530.5 L360 529.5 L360.6 528.5 L361.4 528 L362.3 527.4 L363.3 527.4 L364.3 527.3 L365.3 527.6 L366.3 527.9 L367.1 528.8 L367.8 529.7 L368.8 530.9 L369.2 532.7 L369.2 533.7 L369.1 533.6 L369.2 532.2 L369.5 531.1 L369.8 529.9 L370.4 528.8 L371 527.7 L371.9 526.7 L372.7 525.7 L373.7 525.7 L374.7 525.6 L375.7 526.4 L376.7 527.2 L377.4 528.1 L378.2 529.1 L378.7 530 L379.1 530.9 L379.4 531.9 L379.4 531.9 L379.2 530.9 L379.4 529.5 L380.1 528.9 L380.8 527.8 L381.4 526.8 L382.3 526.3 L383.2 525.8 L384.2 525.7 L385.2 525.6 L386.2 526.1 L387.1 526.6 L387.9 527.7 L388.6 528.7 L389 529.8 L389.5 531 L389.8 532.7 L389.7 533.3 L389.7 534.3 M97.8 566.6 L98.8 566.9 L99.8 567.2 L100.7 568.1 L101.6 568.9 L102.2 570.2 L102.9 571.5 L103.4 571.7 L103.4 572 L103.2 571.4 L103.3 570.9 L103.7 569.8 L104.8 568.2 L105.5 567.5 L106.3 566.7 L107.3 566.1 L108.2 565.4 L109.3 565.8 L110.3 566.2 L111.2 567.2 L112 568.2 L112.6 569.4 L113.2 570.6 L113.5 571.6 L113.8 572.6 L113.9 573.7 L113.7 573.3 L113.7 571.7 L113.9 570.6 L114.1 569.5 L114.6 568.5 L115.2 567.5 L116 566.7 L116.8 566 L117.8 565.8 L118.8 565.7 L119.8 565.9 L120.8 566.2 L122.4 567.2 L123.5 568.9 L124 570.7 L124.1 571.9 L124.1 573.1 L124 574.2 L124 572.5 L124.2 570.7 L124.4 568.8 L125 567.7 L125.5 566.5 L126.3 565.6 L127.2 564.8 L128.2 564.6 L129.2 564.4 L130.2 564.8 L131.2 565.3 L132 566.2 L132.9 567.1 L133.4 568.1 L133.9 569 L134.2 570.7 L134.5 572.3 L134.4 572.8 L134.2 571.3 L134.1 569.7 L134.1 568.3 L134.7 567 L136 565.6 L136.8 565 L137.7 564.4 L138.7 564.2 L139.7 564 L140.7 564.4 L141.6 564.8 L142.4 566 L143.3 567.2 L143.7 568.1 L144.2 568.9 L144.7 570.9 L144.6 571.7 L144.5 571.1 L144.6 569.3 L144.9 568.1 L145.2 566.9 L145.8 565.8 L146.4 564.8 L147.3 564.2 L148.2 563.6 L149.1 563.3 L150.1 563 L151.1 563.7 L152 564.3 L153.5 565.4 L154.4 566.8 L154.7 568.3 L154.7 569.3 L154.8 569.2 L154.9 568 L155.6 566.6 L156.2 565.2 L156.8 563.8 L157.7 563.1 L158.6 562.5 L159.6 562.5 L160.6 562.4 L161.5 563 L162.5 563.6 L163.2 564.6 L164 565.7 L164.4 566.7 L164.9 567.7 L165.1 569 L165 569 L165.1 569.9 L165.2 568.7 L165.3 567.5 L165.6 566 L165.9 564.4 L167.3 563.2 L168.2 562.7 L169.1 562.2 L170.1 562.2 L171.1 562.1 L172 562.6 L172.9 563.1 L173.6 564 L174.4 564.9 L174.8 566 L175.2 567.2 L175.4 569.1 L175.6 571 L175.4 569.5 L175.3 568.6 L175.4 567.6 L175.5 566.6 L175.9 565.4 L176.3 564.1 L177 563.1 L177.7 562.1 L178.6 561.6 L179.5 561.1 M195.2 564.2 L195.5 565.2 L195.9 566.3 L196 567.4 L195.9 567.3 L195.8 565.9 L196 564.9 L196.1 563.9 L197.1 562.3 L197.8 561.4 L198.5 560.4 L200.5 560.2 L202.4 560.3 L203.3 560.8 L204.2 561.3 L204.8 562.2 L205.4 563.1 L205.8 564.2 L206.1 565.2 L206.3 566.7 L206.2 567 L206.3 567.7 L206.4 565.8 L206.5 563.8 L207 562.6 L207.5 561.4 L208.2 560.4 L209 559.5 L209.9 559.2 L210.9 558.8 L211.9 559.1 L212.9 559.3 L213.7 560.1 L214.6 560.8 L215.2 561.6 L215.8 562.4 L216.1 563.9 L216.5 565.3 L216.6 566 L216.4 564.8 L216.3 563.5 L216.3 563.2 L216.8 562 L217.3 561.2 L217.8 560.3 L218.6 559.6 L219.4 558.8 L220.4 558.4 L221.3 558.1 L222.3 558.4 L223.3 558.7 L224.2 559.7 L225 560.7 L225.6 562.3 L226.3 563.9 L226.7 564.8 L226.8 565.7 L226.8 565.3 L226.8 563.7 L227 562.6 L227.2 561.5 L227.7 560.5 L228.3 559.5 L229.1 558.8 L229.9 558.2 L230.8 557.8 L231.8 557.4 L232.8 557.9 L233.8 558.4 L235.4 559.4 L235.9 560.3 L236.5 561.2 L237 563 L237 564.2 L237 564.3 L237.1 563.1 L237.3 562 L237.5 561 L238.1 559.8 L238.6 558.7 L239.5 557.8 L240.3 557 L241.3 556.7 L242.3 556.5 L243.2 557 L244.2 557.4 L245.1 558.3 L245.9 559.2 L246.4 560.1 L246.9 561 L247.3 562.2 L247.3 562.4 L247.2 563.7 L247.3 561.8 L247.5 560.5 L247.8 559.2 L249 557.7 L249.9 557.1 L250.7 556.4 L251.7 556.3 L252.7 556.1 L253.7 556.5 L254.7 556.9 L255.5 557.8 L256.3 558.8 L256.8 559.9 L257.3 561.1 L257.6 563 L257.8 565 L257.8 566 L257.7 564.6 L257.5 563.1 L257.6 561.3 L257.9 560.1 L258.2 558.9 L258.8 557.8 L259.4 556.8 L260.3 556.2 L261.2 555.6 L262.2 555.6 L263.2 555.6 L264.2 556 L265.1 556.3 L265.9 557.2 L266.7 558 L267.6 559 L267.9 560.6 L267.9 561.6 L267.7 561.5 L267.8 560.2 L268.2 559.1 L268.5 558 L269.1 556.9 L269.8 555.8 L270.7 555.2 L271.6 554.5 L272.6 554.2 L273.6 553.9 L274.6 554.8 L275.6 555.7 M286 555.1 L286.7 556.1 L287.4 557.1 L287.8 558.2 L288.3 559.4 L288.5 561.1 L288.5 561.6 L288.5 562.6 L288.6 561.3 L288.7 559.9 L289 558 L289.3 556.2 L290 555.2 L290.7 554.2 L291.6 553.7 L292.5 553.2 L293.6 553.3 L294.6 553.4 L295.5 554 L296.4 554.5 L297.7 555.9 L298.4 556.8 L298.6 558.5 L298.8 560.2 L298.6 558.8 L298.6 558.5 L298.9 557.2 L299.3 556.2 L299.7 555.2 L300.4 554.3 L301.1 553.3 L302.1 552.8 L303 552.3 L304 552.4 L305 552.6 L305.9 553.4 L306.8 554.3 L307.5 555.7 L308.2 557.2 L308.8 558.3 L309 559.4 L309 559.2 L308.9 557.8 L309.2 555.9 L309.7 555 L310.1 554.1 L311.6 552.9 L312.6 552.3 L313.5 551.7 L314.5 551.8 L315.4 552 L316.3 552.7 L317.2 553.4 L317.9 554.4 L318.5 555.3 L318.8 556.4 L319.2 557.4 L319.3 558.9 L319.3 559.2 L319.2 558.1 L319.4 557 L319.6 555.9 L320 554.8 L320.5 553.7 L321.3 552.6 L322 551.6 L323 551.2 L323.9 550.9 L324.9 551.2 L325.9 551.4 L326.8 552.1 L327.7 552.8 L328.9 554.4 L329.4 555.4 L329.5 555.7 L329.3 555.9 L329.5 557.2 L329.7 555.7 L329.8 554.2 L330.3 553.3 L330.9 552.4 L331.7 551.6 L332.4 550.8 L333.4 550.5 L334.4 550.1 L335.4 550.4 L336.4 550.7 L337.2 551.6 L338.1 552.5 L338.7 553.7 L339.3 554.8 L339.6 556.7 L340 558.6 L340.1 559.9 L339.9 558.6 L339.7 557.3 L339.7 555.6 L339.9 554.5 L340.2 553.4 L340.7 552.5 L341.2 551.5 L342.1 550.9 L342.9 550.3 L343.9 550.1 L344.9 550 L346.9 550.4 L347.7 551.2 L348.6 552 L349.1 553.3 L349.7 554.6 L350.1 555.3 L350.2 556.5 L349.9 556.6 L350 555.3 L350.2 554.1 L350.5 553 L351 551.8 L351.6 550.6 L352.4 549.8 L353.3 549 L354.3 548.5 L355.3 548.1 L356.3 548.8 L357.3 549.5 L358.1 550.4 L358.9 551.2 L359.4 552.1 L360 553 L360.4 554.1 L360.3 554.2 L360.1 553.4 L360.2 552.5 L360.8 551.3 L362 549.8 L362.9 549.1 L363.8 548.4 L364.8 548.3 L365.8 548.1 L366.8 548.5 L367.7 549 L368.5 549.9 L369.3 550.9 L369.8 552.1 L370.3 553.3 L370.7 555.1 L370.7 555.8 L370.7 557.2 L370.7 555.9 L370.8 554.7 L371 552.8 L371.2 550.9 L371.9 549.9 L372.5 548.9 L373.4 548.3 L374.2 547.8 L375.3 547.8 L376.3 547.8 L377.2 548.1 L378.2 548.5 L379.7 549.6 L380.6 551.3 L380.8 553.1 L381 555 L381.1 556.2 L380.9 555 L380.8 553.8 L381 552.4 L381.3 551.3 L381.6 550.2 L382.3 549.1 L382.9 548 L383.8 547.3 L384.7 546.6 L385.7 546.6 L386.7 546.6 L387.6 547.2 L388.6 547.9 L389.3 549.2 L390.1 550.5 L390.9 551.7 L391.2 552.8 L391.2 552.7 L391.1 551.6 L391.2 550 L392 548.6 L393.4 547.3 L394.3 546.6 L395.1 545.8 L396.1 545.8 L397.1 545.8 L398.1 546.5 L399 547.3 L399.7 548.3 L400.4 549.3 L400.8 550.4 L401.3 551.6 L401.5 553.3 L401.5 553.7 L401.4 552.8 L401.5 551.7 L401.6 550.7 L402 549.7 L402.4 548.7 L403.1 547.4 L403.7 546.1 L405.6 545.4 M99.3 588.4 L100.3 588.6 L101.4 588.7 L103.1 589.7 L103.7 590.5 L104.3 591.4 L104.6 592.3 L104.9 593.3 L105 594.7 L104.9 595 L105 595.7 L105.2 593.8 L105.3 592 L105.8 590.8 L106.3 589.6 L107 588.7 L107.8 587.7 L108.8 587.4 L109.8 587.1 L110.8 587.4 L111.8 587.8 L112.6 588.6 L113.5 589.4 L114 590.3 L114.6 591.2 L115.1 592.5 L115.2 593.8 L115.4 595.1 L115.2 593.6 L115.1 592.2 L115.1 591 L115.6 590 L116.7 588.5 L117.5 587.9 L118.3 587.2 L119.3 586.9 L120.2 586.6 L121.2 586.9 L122.2 587.2 L123.1 588.2 L123.9 589.3 L124.5 590.9 L125.1 592.4 L125.5 593.3 L125.6 594.3 L125.5 593.9 L125.5 592.2 L125.7 591 L126 589.9 L126.5 588.8 L127.1 587.7 L127.9 587.1 L128.7 586.4 L129.7 586 L130.7 585.6 L131.7 586.1 L132.6 586.6 L133.4 587.2 L134.2 587.8 L135.2 589.3 L135.7 591 L135.7 592.1 L135.7 592.2 L135.8 591.1 L136.1 590.1 L136.3 589.1 L136.9 587.9 L137.5 586.8 L138.3 586 L139.2 585.3 L140.1 585.1 L141.1 584.9 L142.1 585.4 L143.1 585.9 L143.9 586.9 L144.7 587.8 L145.2 588.8 L145.7 589.9 L146.1 591.2 L146 591.4 L146 592.5 L146 591.4 L146.1 590.4 L146.3 588.8 L146.6 587.2 L147.8 585.9 L148.7 585.4 L149.6 584.8 L150.6 584.7 L151.6 584.5 L152.6 584.9 L153.6 585.3 L154.4 586.3 L155.1 587.2 L155.6 588.3 L156.1 589.5 L156.4 591.5 L156.6 593.4 L156.5 594.4 L156.3 593 L156.2 591.5 L156.3 589.6 L156.6 588.4 L157 587.2 L157.6 586.1 L158.2 585 L159.1 584.4 L160.1 583.8 L161.1 583.8 L162.1 583.8 L163.1 584.3 L164 584.8 L164.8 585.8 L165.5 586.8 L166.3 587.1 L166.6 588.5 L166.5 589.4 L166.4 589.3 L166.6 588.1 L167 587.1 L167.4 586.2 L168.1 585.2 L168.7 584.2 L169.6 583.5 L170.5 582.9 L171.5 582.7 L172.5 582.5 L173.4 583.4 L174.4 584.3 L175.1 585.3 L175.8 586.4 L176.3 587.4 L176.7 588.5 L176.9 589.7 L176.9 589.7 L176.8 588.6 L177 586.7 L177.8 585.3 L178.5 584.3 L179.1 583.3 L181 582.8 L182 582.7 L183 582.7 L183.9 583.2 L184.8 583.7 L185.5 584.6 L186.2 585.5 L186.6 586.6 L187 587.7 L187.2 589.3 L187.1 589.8 L187.3 590.8 L187.4 589.5 L187.4 588.1 L187.8 586.3 L188.2 584.4 L188.9 583.4 L189.6 582.4 L190.5 582 L191.4 581.5 L192.4 581.7 L193.5 581.8 L194.4 582.5 L195.3 583.1 L195.9 583.9 L196.5 584.6 L197.2 585.8 L197.3 587 L197.5 588.2 L197.3 586.5 L197.3 586.3 L197.6 585.1 L198.1 584.3 L198.5 583.4 L199.3 582.5 L200 581.6 L201 581.2 L201.9 580.7 L202.9 580.9 L203.9 581.1 L204.8 581.8 L205.7 582.6 L206.4 584.3 L207.1 585.9 L207.7 587 L207.8 588.1 L207.7 587.9 L207.6 586.5 L207.8 585.4 L207.9 584.4 L208.4 583.3 L208.9 582.3 L209.7 581.7 L210.4 581 L211.4 580.5 L212.3 580 M222.8 579.2 L223.8 579.5 L224.8 579.9 L225.7 580.6 L226.5 581.4 L227.1 582.3 L227.7 583.2 L228.2 584.4 L228.2 584.7 L228.1 584 L228.2 585 L228.3 583.6 L228.5 582.2 L229.6 580.6 L230.5 579.9 L231.3 579.1 L232.3 578.8 L233.3 578.5 L234.3 578.9 L235.3 579.2 L236.1 580.1 L237 581 L237.6 582.2 L238.1 583.3 L238.5 585.3 L238.8 587.3 L238.8 588.6 L238.6 587.2 L238.4 585.9 L238.4 584.1 L238.7 583 L238.9 581.8 L239.5 580.8 L240.1 579.7 L240.9 579.1 L241.8 578.5 L242.8 578.4 L243.8 578.2 L244.8 578.5 L245.7 578.8 L246.5 579.6 L247.4 580.4 L247.9 581.6 L248.4 582.8 L248.8 583.3 L248.8 584.5 L248.7 584.5 L248.8 583.3 L249.1 582.2 L249.3 581.1 L249.9 580 L250.5 578.9 L251.3 578.1 L252.2 577.3 L253.2 576.9 L254.2 576.5 L255.2 577.2 L256.2 578 L257 579 L257.8 579.9 L258.3 580.9 L258.8 581.8 L259.1 583.1 L259 583.2 L258.9 582.3 L259 580.8 L259.6 579.4 L260.9 578 L261.8 577.4 L262.7 576.9 L263.7 576.8 L264.7 576.6 L265.6 577 L266.6 577.5 L267.4 578.4 L268.1 579.4 L268.6 580.5 L269.1 581.7 L269.5 583.6 L269.4 584.3 L269.4 585.6 L269.5 584.3 L269.5 583 L269.8 581.1 L270.1 579.2 L270.7 578.2 L271.4 577.2 L272.3 576.6 L273.1 576.1 L274.1 576.1 L275.1 576.1 L276.1 576.6 L277 577 L278.4 578.2 L279.2 579.4 L279.5 581.1 L279.7 582.9 L279.8 584 L279.7 582.8 L279.5 581.6 L279.7 580.3 L280.1 579.3 L280.5 578.3 L281.1 577.3 L281.8 576.2 L282.7 575.6 L283.6 575 L284.6 575 L285.6 575.1 L286.5 575.7 L287.4 576.4 L288.2 577.8 L288.9 579.3 L289.7 580.5 L290 581.7 L289.9 581.6 L289.8 580.4 L290 578.6 L290.8 576.9 L292.2 575.6 L293.1 575.2 L294.1 574.8 L295.1 574.6 L296 574.3 L296.9 575.1 L297.9 575.8 L298.5 576.7 L299.2 577.7 L299.6 578.8 L300 579.9 L300.2 581.5 L300.3 582 L300.2 581 L300.3 580 L300.4 579 L300.8 577.9 L301.2 576.9 L301.9 575.6 L302.6 574.3 L303.5 573.9 L304.5 573.6 L305.5 573.8 L306.5 574 L307.4 574.6 L308.3 575.2 L309.6 576.6 L310.2 577.7 L310.4 578.2 L310.3 578.9 L310.4 580.4 L310.6 579.4 L310.7 578.5 L311.1 576.9 L311.5 575.4 L312.3 574.5 L313 573.6 L314 573.2 L314.9 572.7 L316 572.9 L317 573.1 L317.9 573.9 L318.8 574.7 L319.4 575.8 L320.1 577 L320.4 578 L320.8 579 L320.9 580.7 L321 582.3 L320.8 581.1 L320.6 579.8 L320.6 578.4 L320.8 577.3 L320.9 576.3 L321.4 575.3 L321.9 574.4 L322.7 573.7 L323.5 573.1 L325.4 572.7 L327.4 572.8 L328.3 573.5 L329.2 574.2 L329.8 575.6 L330.5 576.9 L331 577.8 L331.1 579.3 L330.9 579.5 L330.9 578.3 L331.1 577.2 L331.3 576.1 L331.8 574.9 L332.3 573.7 L333.1 572.8 L333.9 571.9 L334.9 571.3 L335.8 570.7 L336.9 571.2 L337.9 571.7 L338.7 572.6 L339.6 573.5 L340.2 574.3 L340.8 575.2 L341.3 576.3 L341.2 576.5 L341 576 L341.1 575.6 L341.6 574.4 L342.7 572.8 L343.5 572 L344.3 571.2 L345.3 570.9 L346.3 570.6 L347.3 570.9 L348.3 571.3 L349.2 572.2 L350 573.1 L350.6 574.3 L351.1 575.5 L351.4 576.5 L351.7 577.5 L351.7 578.4 L351.5 577.8 L351.6 577.7 L351.8 575.8 L352 573.9 L352.6 572.8 L353.1 571.8 L354 571.2 L354.8 570.6 L355.8 570.5 L356.8 570.4 L357.8 570.7 L358.8 571 L360.3 572.1 L360.9 573 L361.4 573.8 L361.6 575.7 L361.9 577.6 L362 579 L361.9 577.9 L361.8 576.8 L361.9 575.5 L362.2 574.4 L362.4 573.3 L363 572.1 L363.6 571 L364.4 570.2 L365.3 569.4 L366.3 569.3 L367.2 569.2 L368.2 569.7 L369.2 570.2 L370 571.4 L370.8 572.6 L371.3 573.9 L371.8 575.2 L372.1 575 L372.1 575.1 L371.9 574.2 L372 572.7 L372.7 571.6 L374 570.1 L374.9 569.6 L375.7 569 L376.7 568.6 L377.7 568.2 L378.6 568.9 L379.6 569.6 L380.4 570.6 L381.1 571.6 L381.6 572.7 L382.1 573.9 L382.5 575.7 M100.8 609.1 L101.8 609.3 L102.8 609.5 L103.7 610.3 L104.6 611.1 L105.3 612.8 L105.9 614.5 L106.5 615.6 L106.6 616.8 L106.4 616.6 L106.3 615 L106.5 613.9 L106.7 612.8 L107.2 611.7 L107.7 610.6 L108.5 609.9 L109.3 609.2 L110.3 608.7 L111.2 608.2 L112.3 608.6 L113.3 608.9 L114.1 609.6 L115 610.2 L116.1 611.8 L116.7 613.6 L116.8 615 L116.6 615.2 L116.6 614.2 L116.9 613.2 L117.1 612.2 L117.6 611.1 L118.1 610 L118.9 608.8 L119.7 607.6 L121.7 607.5 L122.7 607.9 L123.7 608.3 L124.6 609.2 L125.4 610 L125.9 611 L126.5 612 L127 613.4 L127 613.7 L126.8 613 L126.9 613.1 L127.1 611.7 L127.4 610.2 L128.5 608.8 L129.4 608.2 L130.2 607.6 L131.2 607.3 L132.2 607.1 L133.2 607.4 L134.2 607.8 L135 608.6 L135.8 609.5 L136.3 610.7 L136.9 611.8 L137.1 612.8 L137.3 613.8 L137.4 615.4 L137.5 617 L137.4 615.7 L137.2 614.3 L137.3 612.6 L137.5 611.4 L137.8 610.2 L138.4 609.1 L139 608 L139.8 607.4 L140.7 606.7 L141.7 606.6 L142.7 606.5 L143.6 606.9 L144.6 607.3 L145.4 608.1 L146.1 609 L146.6 610 L147.1 611 L147.4 611.2 L147.4 612.3 L147.5 612.4 L147.6 611.2 L147.9 610.3 L148.2 609.3 L148.8 608.2 L149.4 607.2 L150.3 606.4 L151.1 605.7 L152.1 605.4 L153 605 L154 605.7 L155 606.5 L155.7 607.5 L156.5 608.6 L157 609.6 L157.5 610.7 L157.8 612 L157.8 612.2 L157.7 611.2 L157.8 609.5 L158.5 607.7 L159.8 606.3 L161.6 605.4 M172 604.2 L173 604.2 L174 604.3 L175 604.8 L175.9 605.4 L177.3 606.8 L178.1 607.9 L178.3 609.4 L178.5 610.8 L178.4 611.8 L178.3 610.6 L178.2 609.4 L178.4 608.2 L178.8 607.3 L179.2 606.4 L179.9 605.4 L180.6 604.5 L181.5 603.9 L182.4 603.3 L183.5 603.4 L184.5 603.5 L185.4 604.2 L186.4 604.9 L187.1 606.4 L187.8 607.9 L188.3 609.4 L188.7 610.8 L188.7 610.5 L188.6 610.5 L188.5 609.2 L188.7 607.2 L189.1 606.2 L189.6 605.2 L190.3 604.5 L191 603.8 L192.9 603.2 L193.9 603 L194.9 602.8 L195.9 603.5 L196.8 604.2 L197.4 605.1 L198.1 606 L198.5 607 L198.8 608.1 L199 609.7 L198.9 610.2 L198.8 609.2 L199 608.2 L199.1 607.1 L199.6 606.1 L200 605 L200.7 603.7 L201.4 602.4 L202.4 602.1 L203.4 601.9 L204.4 602.1 L205.4 602.3 L206.3 603 L207.1 603.7 L207.8 604.6 L208.4 605.4 L209 606.6 L209.1 606.9 L208.9 606.6 L209.1 608.2 L209.5 606.3 L210 605 L210.4 603.6 L211.2 602.8 L211.9 602 L212.9 601.6 L213.8 601.2 L214.8 601.5 L215.8 601.7 L216.7 602.5 L217.6 603.3 L218.2 604.5 L218.8 605.6 L219.1 606.7 L219.4 607.7 L219.5 609.4 L219.7 611 L219.6 609.8 L219.5 608.5 L219.4 607 L219.6 605.9 L219.8 604.8 L220.3 603.8 L220.8 602.7 L221.6 602 L222.4 601.3 L223.4 601.2 L224.3 601 L225.3 601.2 L226.3 601.4 L228 602.4 L228.6 603.8 L229.2 605.2 L229.7 605.9 L229.8 607.3 L229.7 607.5 L229.7 606.4 L229.9 605.3 L230.2 604.3 L230.7 603.1 L231.2 601.9 L232 601 L232.8 600.2 L233.8 599.6 L234.7 599.1 L235.7 599.6 L236.7 600.2 L237.6 601.2 L238.4 602.1 L239 603.1 L239.5 604 L240 605.3 L240 605.6 L239.8 604.8 L239.8 603.4 L240.4 602.4 L241.6 601 L242.4 600.1 L243.2 599.2 L244.2 599.1 L245.2 599.1 L246.2 599.5 L247.2 599.8 L248 600.7 L248.9 601.6 L249.4 602.8 L250 604 L250.2 605 L250.4 606 L250.5 606.9 L250.2 606.4 L250.3 606.1"></path><path class="cz-gh" d="M260.9 597.7 L263 598.6 L264.7 599.6 L265.9 600.9 L266.5 602.6 L266.6 604 L266.5 604.4 L266.5 603.6 L266.9 602.8 L267.4 601.3 L267.9 599.7 L269.4 597.7 L271.4 597 L273.4 597.6 L275.1 599.4 L276.3 601.5 L276.9 603.1 L276.9 603.7 L276.8 605.2 L276.7 603.4 L276.7 601.6 L277.1 599.8 L278.2 598.4 L279.9 597.3 L281.9 596.7 L283.9 597.2 L285.5 598.8 L286.1 600.5 L286.8 602.2 L287.3 605 L287.2 604.3 L287.1 604 L287.1 602.4 L287.5 600 L288.6 597.7 L290.3 596.2 L292.3 595.9 L294.3 596.4 L296 598.4 L296.9 599.1 L297.3 600.2 L297.4 601.3 L297.2 601.5 L297.3 600.6 L297.9 598.9 L299.1 596.8 M309.5 596 L311.3 595.1 L313.3 594.8 L315.2 595.4 L316.7 597.1 L317.6 599.2 L318 601.1 L318.1 602.6 L318.1 604.2 L318.1 603.5 L318.1 601.6 L318.1 599.7 L318.7 597.3 L320 595.1 L321.7 593.8 L323.7 593.8 L325.6 594.9 L327 596.4 L328 599.2 L328.4 600.4 L328.1 598.5 L328.1 598.6 L328.3 597.7 L329 596 L330.4 594.2 L332.2 593 L334.1 593 L336 594.3 L337.5 596.4 L338.3 598.7 L338.6 600.1 L338.5 600.3 L338.4 599.2 L338.6 597.1 L339.3 595 L340.7 593.4 L342.6 592.2 L344.7 592.8 L346.5 593.6 L347.9 595.2 L348.7 597.2 L348.9 598.8 L348.7 599.5 L348.6 598.7 L349 598 L349.4 596.4 L349.7 594.8 L351.1 592.3 L353 591.3 L355.1 591.6 L357 593.1 L358.3 594.9 L359 596.4 L359.1 596.9 L359.1 598.7 L358.9 597.4 L359.2 594.7 L360.1 593.2 L361.6 591.7 L363.5 590.8 L365.5 591.1 L367.3 592.6 L368.6 594.9 L369 596.8 L369.4 598.8 L369.5 598.4 L369.3 598.3 L369.3 596.9 L369.6 594.7 L370.5 592.4 L372.1 590.9 L374 590.4 L376 590.5 L377.7 592 L378.9 593.2 L379.5 595 L379.6 596.3 L379.6 596.7 L379.6 595.9 L380 593.9 L380.9 591.6 L382.5 589.4 L384.4 588.6 L386.4 589.8 L388.1 591.5 L389.3 593.6 L389.8 595.1 L389.9 595.5 L389.8 594.9 M102.3 630.5 L104.3 631 L106 632.1 L107.2 633.2 L107.5 634.8 L107.9 636.5 L108 638.2 L107.8 636.5 L107.8 635.8 L108.2 634.1 L109.2 631.9 L110.7 630.1 L112.7 629.4 L114.8 630 L116.5 632.1 L117.2 633.6 L117.8 635.1 L118.2 635.7 L118.3 636.5 L118 635.8 L118 634.3 L118.5 632.4 L119.6 630.8 L121.2 629.7 L123.2 628.6 L125.2 629.6 L126.9 631.1 L128 633.3 L128.5 635.3 L128.6 636.5 L128.4 636.4 L128.4 634.8 L129 633.3 L129.5 631.7 L130 630.2 L131.7 628.6 L133.7 628.2 L135.6 629 L137.2 630.4 L138.3 631.7 L138.7 632.4 L138.7 633.3 L138.7 635.6 L138.8 634.3 L139 632.7 L139.2 631.1 L140.4 629.2 L142.1 627.7 L144.1 627.3 L146.1 628.3 L147.7 630.3 L148.7 632.6 L149 634.4 L149.3 636.2 L149 634.8 L148.9 633.9 L149 632.1 L149.6 630 L150.8 628.4 L152.6 627.5 L154.6 627.3 L156.5 627.9 L158 630 L158.9 631.4 L159.3 633.2"></path><path class="cz-ln cz-w1" d="M287.5 537.4 L287.2 535 L287 532.7 L286.7 530.3 L286.8 528.1 L286.9 526 L286.9 523.8 L287.1 521.7 L287.3 519.5 L287.5 517.4 L287.7 515.3 L288 513.3 L288.2 511.2 L288.6 509.1 L289 507.1 L289.3 505.1 L289.8 503.1 L290.2 501.1 L290.7 499.1 L291.2 497.1 L291.7 495.2 L292.2 493.2 L292.7 491.3 L293.3 489.3 L293.8 487.4 L294.7 484.5 L295.6 481.7 L296.6 478.9 L297.6 476.1 L298.7 473.3 L299.7 470.5 L300.9 467.8 L302 465 L303.2 462.3 L304.4 459.6 L305.7 457 L307 454.3 L308.4 451.7 L309.9 449.1 L311.3 446.6 L312.8 444 L314.4 441.5 L315.9 439 L317.5 436.5 L319.1 434 L320.8 431.6 L322.5 429.1 L324.3 426.7 L326 424.3 L327.8 421.9 L329.5 419.5 L331.3 417.1 L333.1 414.7 L334.3 413.1 L335.6 411.5 L336.8 410 L338.1 408.4 L339.4 406.9 L340.6 405.3 L342 403.8 L343.3 402.3 L344.6 400.7 L345.9 399.2 L347.2 397.7 L348.5 396.2 L349.9 394.7 L351.2 393.1 L352.6 391.6 L353.9 390.2 L355.3 388.7 L356.7 387.2 L358.1 385.7 L359.5 384.2 L360.9 382.8 L362.3 381.3 L363.6 379.8 L365 378.3 L366.4 376.8 L367.7 375.3 L369.1 373.8 L370.5 372.3 L371.8 370.8 L373.2 369.3 L374.6 367.8 L376 366.3 L377.4 364.8 L378.8 363.3 L380.2 361.8 L381.5 360.3 L381.3 360.2 L380.7 362.1 L380.1 364 L379.6 365.9 L379 367.8 L378.4 369.8 L377.8 371.7 L377.2 373.6 L376.6 375.5 L376 377.4 L375.4 379.3 L374.7 381.2 L374.1 383.1 L373.2 386 L372.3 388.8 L371.4 391.7 L370.5 394.5 L369.6 397.4 L368.6 400.2 L367.7 403 L366.7 405.9 L365.7 408.7 L364.8 411.5 L363.8 414.3 L362.8 417.1 L361.8 419.9 L360.7 422.7 L359.6 425.5 L358.5 428.2 L357.3 430.9 L356.1 433.6 L354.9 436.3 L353.7 439 L352.5 441.7 L351.2 444.4 L349.9 447.1 L348.6 449.7 L347.2 452.3 L345.9 454.9 L344.5 457.5 L343.1 460.1 L341.7 462.7 L340.2 465.3 L338.8 467.9 L337.3 470.4 L335.7 473 L334.2 475.5 L332.5 477.9 L330.9 480.4 L329.2 482.8 L327.5 485.3 L325.8 487.7 L324 490.1 L322.2 492.5 L320.4 494.9 L318.6 497.2 L316.7 499.6 L315.4 501.1 L314.2 502.7 L312.9 504.2 L311.6 505.8 L310.3 507.3 L309.1 508.9 L307.8 510.4 L306.5 512 L305.2 513.5 L303.9 515 L302.5 516.5 L301.2 518.1 L299.8 519.6 L298.4 521 L297.1 522.5 L295.6 524 L294.1 525.4 L292.7 526.9 L291.3 529.5 L289.9 532.1 L288.5 534.7 L287.1 537.3 Z" style="fill: var(--capa-faixa)"></path><path class="cz-ln cz-w3" d="M291.7 526.4 L291.9 524.6 L292 522.7 L292.1 520.9 L292.3 519 L292.4 517.2 L292.5 515.4 L292.6 513.5 M295.6 519.1 L295.4 517.3 L295.1 515.5 L294.9 513.7 L294.6 511.9 L294.4 510.1 L294.2 508.3 L293.9 506.5 L293.7 504.7 M299.5 511.8 L299 510.1 L298.5 508.3 L298.1 506.6 L297.6 504.9 L297.1 503.1 L296.6 501.4 L296.2 499.6 L295.7 497.9 L295.2 496.2 M303.3 504.5 L302.6 502.7 L301.9 500.8 L301.2 499 L300.5 497.1 L299.8 495.3 L299.2 493.4 L298.5 491.5 L297.8 489.7 L297.1 487.8 M307.2 497.2 L306.4 495.5 L305.6 493.7 L304.9 492 L304.1 490.2 L303.3 488.5 L302.5 486.7 L301.7 484.9 L300.9 483.2 L300.1 481.4 L299.3 479.7 M311.1 489.9 L310.3 488.3 L309.4 486.6 L308.6 485 L307.8 483.3 L306.9 481.6 L306.1 480 L305.3 478.3 L304.5 476.7 L303.6 475 L302.8 473.3 L302 471.7 M315 482.6 L314.1 480.9 L313.2 479.2 L312.2 477.5 L311.3 475.8 L310.4 474.1 L309.5 472.4 L308.6 470.7 L307.6 469 L306.7 467.3 L305.8 465.6 L304.9 463.9 M318.9 475.3 L317.9 473.6 L317 471.8 L316 470.1 L315 468.4 L314 466.6 L313 464.9 L312 463.2 L311 461.4 L310.1 459.7 L309.1 458 L308.1 456.2 M322.7 468.1 L321.8 466.4 L320.9 464.8 L320 463.2 L319 461.6 L318.1 460 L317.2 458.4 L316.2 456.8 L315.3 455.2 L314.4 453.6 L313.4 452 L312.5 450.4 L311.6 448.8 M326.6 460.8 L325.7 459.1 L324.8 457.5 L323.8 455.9 L322.9 454.3 L321.9 452.7 L321 451.1 L320.1 449.5 L319.1 447.9 L318.2 446.3 L317.2 444.6 L316.3 443 L315.4 441.4 M330.5 453.5 L329.6 451.9 L328.7 450.3 L327.7 448.6 L326.8 447 L325.9 445.4 L325 443.8 L324.1 442.2 L323.2 440.6 L322.2 439 L321.3 437.4 L320.4 435.8 L319.5 434.2 M334.4 446.2 L333.4 444.4 L332.4 442.7 L331.5 441 L330.5 439.3 L329.6 437.5 L328.6 435.8 L327.6 434.1 L326.7 432.3 L325.7 430.6 L324.7 428.9 L323.8 427.2 M338.3 438.9 L337.4 437.2 L336.5 435.5 L335.6 433.8 L334.6 432.1 L333.7 430.4 L332.8 428.7 L331.9 427 L331 425.3 L330.1 423.6 L329.2 421.9 L328.3 420.2 M342.2 431.6 L341.3 429.9 L340.5 428.3 L339.7 426.6 L338.9 424.9 L338 423.3 L337.2 421.6 L336.4 420 L335.6 418.3 L334.7 416.7 L333.9 415 L333.1 413.4 M346 424.3 L345.2 422.5 L344.5 420.7 L343.7 419 L342.9 417.2 L342.1 415.5 L341.3 413.7 L340.5 411.9 L339.7 410.2 L338.9 408.4 L338.1 406.6 M349.9 417 L349.3 415.3 L348.6 413.6 L347.9 411.9 L347.2 410.2 L346.5 408.5 L345.9 406.8 L345.2 405.1 L344.5 403.4 L343.8 401.7 L343.2 400 M353.8 409.7 L353.2 407.9 L352.6 406.1 L352 404.3 L351.4 402.5 L350.8 400.7 L350.2 398.9 L349.7 397.1 L349.1 395.3 L348.5 393.5 M357.6 402.4 L357.2 400.5 L356.7 398.5 L356.2 396.6 L355.7 394.7 L355.3 392.8 L354.8 390.8 L354.3 388.9 L353.8 387 M361.6 395.1 L361.3 393.3 L361 391.5 L360.8 389.6 L360.5 387.8 L360.2 386 L359.9 384.2 L359.7 382.4 L359.4 380.6 M365.4 387.8 L365.4 385.8 L365.3 383.9 L365.3 382 L365.2 380 L365.1 378.1 L365.1 376.1 L365 374.2 M369.3 380.5 L369.5 378.7 L369.7 376.9 L369.9 375.1 L370.1 373.3 L370.3 371.5 L370.4 369.6 L370.6 367.8 M373.2 373.2 L373.6 371.5 L374.1 369.9 L374.5 368.2 L375 366.5 L375.4 364.8 L375.9 363.2 L376.3 361.5 M377.1 368.4 L379 367.7 M375.9 371.3 L378.1 370.5 M374.1 374.6 L377.2 373.5 M372.7 376.9 L375.9 375.7 M371.9 379.7 L375.1 378.5 M370.5 381.9 L372.5 381.2 L374.6 380.4 M368.3 385.9 L370.9 384.9 L373.5 384 M367.5 388 L370.5 387 L373.4 385.9 M365.7 390.7 L369 389.5 L372.3 388.2 M364.1 394.1 L367.5 392.9 L370.9 391.6 M362.6 396.6 L365.2 395.7 L367.7 394.8 L370.3 393.9 M360.7 400.3 L363.5 399.2 L366.4 398.2 L369.2 397.1 M359.7 402.2 L362.7 401 L365.7 399.9 L368.7 398.8 M357.5 405.3 L360.9 404.1 L364.2 403 L367.6 401.8 M357 408 L360.1 406.8 L363.2 405.7 L366.4 404.6 M354.4 411.1 L357.3 410 L360.3 409 L363.2 408 L366.2 406.9 M353.2 414 L356.2 412.9 L359.2 411.8 L362.2 410.8 L365.2 409.7 M351.8 416.7 L354.7 415.6 L357.7 414.6 L360.6 413.5 L363.5 412.5 M350.3 419.7 L353.6 418.5 L356.8 417.4 L360.1 416.3 L363.4 415.1 M348.9 422.6 L352 421.5 L355.2 420.3 L358.3 419.2 L361.5 418 M347 425.7 L350.4 424.5 L353.8 423.3 L357.2 422.1 L360.6 420.8 M345.2 428.8 L348.8 427.5 L352.4 426.1 L356.1 424.7 L359.7 423.4 M344.5 431.4 L348.2 430.2 L351.9 428.9 L355.6 427.7 L359.2 426.4 M342.6 434.5 L346.4 433.1 L350.1 431.8 L353.8 430.5 L357.5 429.2 M340.9 437.8 L344 436.7 L347.1 435.5 L350.2 434.3 L353.3 433.1 L356.4 431.9 M339.4 440.2 L343.1 438.8 L346.9 437.5 L350.6 436.1 L354.3 434.7 M338 443.8 L341.2 442.6 L344.4 441.4 L347.6 440.1 L350.7 438.9 L353.9 437.8 M336.3 446 L339.4 444.9 L342.6 443.8 L345.7 442.7 L348.9 441.5 L352 440.5 M334.6 449.1 L338 448 L341.3 446.9 L344.6 445.7 L347.9 444.6 L351.2 443.3 M333 452 L336.5 450.8 L340 449.6 L343.5 448.4 L347 447.2 L350.4 445.9 M331.1 454.8 L334.5 453.6 L337.9 452.3 L341.3 451.1 L344.7 449.8 L348.1 448.5 M330.4 457.5 L333.6 456.2 L336.9 455 L340.2 453.9 L343.5 452.7 L346.8 451.5 M329.1 460.1 L332.5 458.9 L335.9 457.6 L339.3 456.4 L342.7 455.1 L346.1 453.7 M326.9 463.1 L330.3 461.9 L333.8 460.7 L337.3 459.5 L340.7 458.3 L344.2 457.1 M325.1 466.3 L328.5 465 L331.9 463.8 L335.3 462.5 L338.7 461.2 L342.1 460 M324 469 L327.3 467.8 L330.6 466.5 L334 465.3 L337.3 464 L340.7 462.8 M322.7 472.2 L326 471.1 L329.4 469.9 L332.7 468.7 L336.1 467.5 L339.4 466.2 M320.3 475.4 L323.8 474.1 L327.2 472.9 L330.7 471.7 L334.2 470.5 L337.7 469.3 M319 478.1 L322.3 476.9 L325.5 475.8 L328.7 474.6 L331.9 473.4 L335.1 472.3 M317.4 481.7 L320.5 480.5 L323.7 479.4 L326.8 478.2 L330 477.1 L333.1 475.9 M316.3 484.2 L319.9 482.9 L323.5 481.5 L327.1 480.2 L330.7 478.8 M314.3 487 L318 485.7 L321.7 484.3 L325.4 483 L329.1 481.6 M313 489.9 L316.6 488.7 L320.2 487.5 L323.8 486.2 L327.3 484.9 M311 493 L314.5 491.8 L318 490.5 L321.5 489.2 L325 488 M310.2 495.7 L313.4 494.5 L316.6 493.3 L319.8 492.1 L323.1 491 M307.9 498.8 L310.9 497.8 L313.9 496.7 L316.9 495.7 L319.9 494.7 M307.2 501.7 L310 500.6 L312.9 499.5 L315.7 498.4 L318.6 497.3 M305.5 504.6 L308.8 503.5 L312.1 502.4 L315.5 501.2 M303.1 507.7 L306.4 506.5 L309.6 505.3 L312.9 504.2 M302.1 510.5 L305 509.5 L307.9 508.4 L310.8 507.4 M300.1 512.8 L303.6 511.5 L307.1 510.3 M299.3 515.8 L302 514.8 L304.8 513.7 M297 518.8 L299.4 517.9 L301.8 517.1 M295.9 521.3 L298.9 520.3 M294.4 524.7 L295.8 524.2"></path><path class="cz-ln cz-w1" d="M253.9 599.9 L255.4 597.3 L256.9 594.8 L258.4 592.2 L259.8 589.7 L261.3 587.1 L262.7 584.5 L264.2 581.9 L265.6 579.4 L267 576.8 L268.5 574.2 L269.9 571.6 L271.4 569.1 L272.8 566.5 L274.3 563.9 L275.7 561.4 L277.2 558.8 L278.6 556.2 L280.1 553.6 L281.5 551.1 L282.9 548.5 L284.4 545.9 L285.8 543.3 L287.3 540.8 L288.7 538.2 L290.2 535.6 L291.6 533 L293.1 530.5 L294.5 527.9 L295.9 525.3 L297.3 522.7 L298.7 520.1 L300.1 517.5 L301.5 514.9 L302.9 512.3 L304.3 509.7 L305.8 507.1 L307.2 504.5 L308.6 501.9 L310 499.4 L311.4 496.8 L312.8 494.2 L314.2 491.6 L315.6 489 L317 486.4 L318.4 483.8 L319.8 481.2 L321.2 478.6 L322.6 476 L324 473.4 L325.5 470.8 L326.9 468.2 L328.2 465.6 L329.6 463 L331 460.4 L332.4 457.8 L333.8 455.2 L335.2 452.6 L336.6 450 L337.9 447.4 L339.3 444.8 L340.7 442.2 L342.1 439.6 L343.5 436.9 L344.8 434.3 L346.2 431.7 L347.6 429.1 L348.9 426.5 L350.3 423.9 L351.7 421.3 L353.1 418.7 L354.5 416.1 L355.9 413.5 L357.2 410.8 L358.6 408.2 L360 405.6 L361.3 403 L362.7 400.4 L364 397.7 L365.4 395.1 L366.7 392.5 L368.1 389.9 L369.4 387.2 L370.8 384.6 L372.1 382 L373.4 379.3 L374.8 376.7 L376.1 374.1 L377.4 371.4 L378.7 368.8 L380 366.1 L381.4 363.5 L382.7 360.9"></path><path class="cz-ln cz-w1" d="M254 599.9 L254.6 598.1 L255.2 596.3 L255.7 594.4 L256.3 592.6 L256.9 590.8 L257.5 589 L258.1 587.2 L258.7 585.3 L259.3 583.5 L259.9 581.7 L261.4 582.4 L262.8 583.2 L264.3 584 L265.8 584.8 L264.6 586.3 L263.4 587.8 L262.2 589.3 L261 590.8 L259.9 592.4 L258.7 593.9 L257.5 595.4 L256.3 596.9 L255.2 598.4 L254 599.9 Z" style="fill: var(--capa-faixa)"></path><path class="cz-ln cz-w3" d="M255.1 597.8 L256 596.1 L256.9 594.4 L257.9 592.6 L258.8 590.9 L259.7 589.2 L260.6 587.4"></path><path class="cz-ln cz-w1" d="M275.5 531.3 L277.4 531.3 L279.4 531.3 L281.3 531.3 L283.2 531.3 L285.1 531.3 L287.1 531.3 L289 531.3 L290.9 531.3 L292.9 531.3 L294.8 531.2 L296.7 531.2 L296.7 533 L296.7 534.9 L296.7 536.7 L296.7 538.6 L296.7 540.4 L296.7 542.2 L296.7 544.1 L296.7 545.9 L296.7 547.7 L294.8 547.7 L292.9 547.7 L290.9 547.7 L289 547.7 L287.1 547.7 L285.1 547.7 L283.2 547.8 L281.3 547.8 L279.4 547.8 L277.4 547.8 L275.5 547.7 L275.5 545.9 L275.5 544.1 L275.5 542.2 L275.5 540.4 L275.5 538.6 L275.5 536.7 L275.5 534.9 L275.4 533 L275.4 531.2 Z" style="fill: var(--capa-faixa)"></path><circle class="cz-fi" cx="286.1" cy="539.5" r="2.1"></circle><path class="cz-ln cz-w1" d="M45.1 520.4 L48 520.3 L50.9 520.3 L53.7 520.3 L56.6 520.3 L59.5 520.3 L62.4 520.3 L65.2 520.3 L68.1 520.3 L71 520.3 L73.9 520.3 L76.7 520.3 L79.6 520.3 L82.5 520.3 L85.4 520.3 L88.2 520.4 L91.1 520.4 L94 520.4 L96.8 520.4 L99.7 520.5 L102.6 520.5 L105.5 520.5 L108.3 520.5 L111.3 520.5 L110.4 517.5 L109.4 514.7 L108.5 511.9 L107.5 509.1 L106.5 506.2 L103.5 506.2 L100.5 506.2 L97.6 506.2 L94.6 506.2 L91.6 506.2 L88.6 506.2 L85.6 506.2 L82.6 506.2 L79.7 506.2 L76.7 506.2 L73.7 506.2 L70.7 506.2 L67.7 506.3 L64.7 506.3 L61.8 506.3 L58.8 506.3 L55.8 506.3 L52.8 506.3 L49.9 506.3 L48.9 509.1 L48 511.9 L47.1 514.8 L46.2 517.6 L45.2 520.5 Z" style="fill: var(--capa-faixa)"></path><path class="cz-ln cz-w3" d="M48.8 509 L51.6 506.2 M47.5 513.4 L49.9 511 L52.3 508.6 L54.6 506.2 M45.4 518.8 L47.9 516.3 L50.4 513.8 L53 511.3 L55.5 508.8 L58 506.4 M47.9 519.9 L50.5 517.4 L53.1 514.8 L55.6 512.2 L58.2 509.6 L60.7 507 M50.3 519.8 L53 517.1 L55.6 514.5 L58.2 511.9 L60.8 509.3 L63.4 506.7 M53.3 520 L56 517.3 L58.8 514.6 L61.6 511.9 L64.4 509.2 L67.2 506.5 M56.6 519.8 L59.4 517.1 L62.1 514.5 L64.9 511.8 L67.6 509.1 L70.3 506.3 M60 519.7 L62.6 517.2 L65.3 514.6 L67.9 512.1 L70.5 509.5 L73.1 506.9 M62.6 520.3 L65.3 517.5 L68 514.8 L70.7 512 L73.3 509.3 L76 506.5 M65.8 519.7 L68.5 517 L71.2 514.4 L73.9 511.8 L76.6 509.2 L79.3 506.5 M69 520 L71.7 517.3 L74.4 514.6 L77.1 511.9 L79.8 509.1 L82.5 506.4 M71.3 520 L74.1 517.3 L76.8 514.6 L79.5 511.9 L82.1 509.2 L84.8 506.5 M74.4 520.1 L77 517.4 L79.6 514.8 L82.2 512.2 L84.9 509.5 L87.5 506.9 M77.4 520.5 L80.1 517.7 L82.8 514.9 L85.5 512.1 L88.3 509.3 L91.1 506.6 M80.5 520.4 L83.2 517.7 L85.9 514.9 L88.5 512.1 L91.2 509.3 L93.9 506.5 M84.4 519.7 L87 517.2 L89.7 514.6 L92.4 512.1 L95 509.5 L97.6 506.9 M87.1 519.8 L89.9 517.2 L92.6 514.6 L95.4 511.9 L98.1 509.3 L100.8 506.6 M90.1 520 L92.8 517.4 L95.5 514.7 L98.2 512.1 L100.9 509.4 L103.6 506.8 M94.2 520.2 L96.7 517.6 L99.2 515 L101.8 512.4 L104.3 509.8 L106.8 507.2 M97 520.1 L99.6 517.5 L102.2 514.9 L104.8 512.3 L107.4 509.6 M100.7 520 L103.3 517.5 L105.9 514.9 L108.4 512.3 M104.1 519.5 L106.3 517.4 L108.6 515.2 M106.7 519.9 L109.3 517.2 M110 520.7 L111 519.7"></path><path class="cz-ln cz-w1" d="M66.4 447.2 L69.3 447.2 L72.3 447.2 L75.2 447.2 L78.2 447.2 L81.1 447.2 L84.1 447.2 L87 447.2 L90 447.2 L90 450.2 L90 453.1 L89.9 456.1 L89.9 459 L89.9 462 L89.9 464.9 L89.8 467.9 L89.8 470.8 L89.8 473.8 L89.9 476.7 L89.9 479.7 L89.9 482.6 L89.9 485.6 L89.9 488.5 L89.9 491.5 L89.9 494.4 L89.9 497.4 L89.9 500.3 L89.9 503.3 L89.9 506.2 L87 506.2 L84.1 506.2 L81.1 506.2 L78.2 506.2 L75.2 506.2 L72.3 506.2 L69.3 506.2 L66.4 506.2 L66.4 503.3 L66.4 500.3 L66.4 497.4 L66.4 494.4 L66.3 491.5 L66.3 488.5 L66.3 485.6 L66.3 482.6 L66.2 479.7 L66.2 476.7 L66.2 473.8 L66.2 470.8 L66.2 467.9 L66.2 464.9 L66.2 462 L66.3 459 L66.3 456.1 L66.3 453.1 L66.3 450.2 L66.3 447.2 Z" style="fill: var(--capa-faixa)"></path><path class="cz-ln cz-w3" d="M79.2 463.1 L80 459.4 L80.7 455.7 L81.4 452 L82 448.3 M79.6 476.9 L80.2 473.2 L80.8 469.6 L81.4 465.9 L81.9 462.2 L82.5 458.6 L83 454.9 L83.7 451.2 L84.3 447.6 M79.4 490.7 L80 487.1 L80.7 483.5 L81.3 479.9 L81.8 476.2 L82.4 472.6 L83 469 L83.6 465.4 L84.3 461.8 L84.9 458.2 L85.5 454.5 L86.1 450.9 L86.7 447.3 M79.4 505.7 L80.1 501.9 L80.8 498.1 L81.5 494.2 L82.2 490.4 L82.9 486.6 L83.6 482.8 L84.2 478.9 L84.9 475.1 L85.5 471.2 L86.2 467.4 L86.9 463.6 L87.6 459.7 L88.3 455.9 L89.1 452.1 L89.9 448.3 M82.2 505.2 L82.9 501.4 L83.5 497.7 L84.2 493.9 L85 490.1 L85.7 486.3 L86.5 482.5 L87.3 478.8 L88 475 L88.7 471.2 L89.4 467.4 L90.1 463.6 M84.8 505.3 L85.5 501.4 L86.1 497.6 L86.8 493.8 L87.6 490 L88.4 486.2 L89.1 482.4 L89.9 478.6 M87.7 506.1 L88.4 502.7 L89 499.3 L89.5 495.9 L90.1 492.5"></path><path class="cz-ln cz-w1" d="M80.3 443.2 L83.1 442.1 L85.9 441 L88.7 440 L91.5 438.9 L94.3 437.8 L97.1 436.7 L99.8 435.6 L102.6 434.5 L105.4 433.4 L108.2 432.3 L111 431.2 L113.8 430.1 L116.6 429 L119.3 427.9 L122.1 426.8 L124.9 425.6 L127.7 424.5 L130.5 423.4 L133.3 422.3 L136 421.2 L138.8 420.1 L141.6 419 L144.4 417.9 L147.2 416.8 L150 415.7 L152.7 414.6 L155.5 413.5 L158.3 412.4 L161.1 411.3 L163.9 410.2 L166.7 409.1 L169.4 407.9 L172.2 406.8 L175 405.7 L173.9 402.9 L172.8 400.2 L171.7 397.4 L170.6 394.7 L167.9 395.9 L165.1 397 L162.3 398.1 L159.5 399.2 L156.7 400.3 L153.9 401.4 L151.2 402.5 L148.4 403.6 L145.6 404.7 L142.8 405.8 L140 406.9 L137.2 408 L134.4 409.1 L131.7 410.2 L128.9 411.3 L126.1 412.4 L123.3 413.6 L120.6 414.7 L117.8 415.8 L115 416.9 L112.2 418 L109.4 419.1 L106.6 420.2 L103.9 421.4 L101.1 422.5 L98.3 423.6 L95.5 424.7 L92.7 425.7 L89.9 426.8 L87.1 427.9 L84.3 429 L81.5 430.1 L78.8 431.2 L76 432.3 L77.1 435.1 L78.1 437.8 L79.2 440.6 L80.3 443.3 Z" style="fill: var(--capa-faixa)"></path><path class="cz-ln cz-w3" d="M79.2 439.9 L82.4 438 L85.6 436.1 L88.8 434.1 L92 432.2 M80.3 442 L83.8 440.1 L87.2 438.2 L90.6 436.3 L94.1 434.4 L97.5 432.5 L100.8 430.5 L104.2 428.5 L107.6 426.5 M87.6 440.4 L90.9 438.3 L94.3 436.3 L97.7 434.4 L101.2 432.4 L104.6 430.5 L108.1 428.5 L111.5 426.6 L114.9 424.6 L118.3 422.7 L121.8 420.7 M101.3 434.5 L104.7 432.6 L108 430.7 L111.4 428.8 L114.8 426.8 L118.2 424.9 L121.6 423 L125 421.1 L128.4 419.2 L131.8 417.3 L135.2 415.4 M115.9 429.3 L119.1 427.4 L122.2 425.6 L125.3 423.8 L128.5 421.9 L131.6 420 L134.7 418.1 L137.8 416.2 L140.9 414.4 L144.1 412.6 L147.3 410.8 L150.4 408.9 M130.9 423.3 L134.4 421.4 L137.8 419.4 L141.2 417.4 L144.7 415.4 L148.1 413.4 L151.5 411.4 L154.9 409.4 L158.4 407.4 L161.8 405.3 L165.1 403.2 M144.4 418 L147.6 416.2 L150.8 414.4 L153.9 412.5 L157 410.7 L160.2 408.8 L163.4 407 L166.5 405.2 L169.7 403.4 L172.8 401.5 M157.6 412.6 L160.8 410.8 L163.9 409 L167.1 407.1 L170.3 405.3 L173.5 403.4 M170.7 407.4 L172.5 406.4 L174.2 405.4"></path><path class="cz-ln cz-w1" d="M169.2 403.1 L171.1 405.4 L173 407.7 L174.9 410.1 L176.8 412.4 L178.6 414.7 L180.5 417.1 L182.4 419.4 L184.2 421.7 L186.1 424.1 L188 426.4 L189.9 428.7 L191.8 431 L193.6 433.4 L195.5 435.7 L197.4 438.1 L199.2 440.4 L201.1 442.7 L203 445.1 L204.9 447.4 L206.8 449.7 L208.7 452 L210.6 454.3 L212.5 456.6 L214.4 458.9 L216.3 461.2 L218.2 463.5 L220.1 465.9 L222 468.2 L223.9 470.5 L225.8 472.8 L227.7 475.1 L229.6 477.4 L231.5 479.7 L233.4 482 L235.3 484.4 L237.2 486.7 L239.1 489 L240.9 491.4 L242.8 493.7 L244.7 496 L246.6 498.3 L248.5 500.6 L250.4 502.9 L252.3 505.3 L254.2 507.6 L256.1 509.9 L257.9 512.2 L259.8 514.6 L261.7 516.9 L263.6 519.2 L265.5 521.5 L267.4 523.8 L269.3 526.1 L271.2 528.5 L273.1 530.8 L274.9 533.1 L276.8 535.5 L278.7 537.8 L280.5 540.1 L282.4 542.5 L284.3 541 L286.2 539.5 L288 538 L289.9 536.5 L288 534.1 L286.1 531.8 L284.2 529.4 L282.3 527.1 L280.5 524.8 L278.6 522.5 L276.7 520.1 L274.8 517.8 L272.9 515.5 L270.9 513.2 L269 510.9 L267.1 508.6 L265.2 506.3 L263.3 504 L261.4 501.7 L259.5 499.4 L257.6 497 L255.8 494.7 L253.9 492.4 L252 490.1 L250.1 487.8 L248.2 485.5 L246.3 483.1 L244.4 480.8 L242.5 478.5 L240.6 476.2 L238.8 473.8 L236.9 471.5 L235 469.2 L233.1 466.9 L231.2 464.6 L229.3 462.3 L227.4 459.9 L225.5 457.6 L223.6 455.3 L221.7 453 L219.8 450.6 L218 448.3 L216.1 446 L214.2 443.7 L212.3 441.3 L210.4 439 L208.5 436.7 L206.7 434.4 L204.8 432 L202.9 429.7 L201.1 427.3 L199.2 425 L197.3 422.7 L195.4 420.3 L193.6 418 L191.7 415.7 L189.8 413.4 L187.9 411.1 L186 408.7 L184.1 406.4 L182.2 404.1 L180.3 401.8 L178.4 399.5 L176.5 397.1 L174.6 398.7 L172.8 400.2 L171 401.7 L169.1 403.2 Z" style="fill: var(--capa-faixa)"></path><path class="cz-ln cz-w3" d="M177.7 413.3 L176 410.5 L174.3 407.6 L172.6 404.7 L171 401.9 M186.7 424.3 L184.8 421 L182.8 417.7 L180.9 414.4 L178.9 411.1 L176.9 407.9 L174.9 404.6 L173 401.3 M194.6 434.4 L192.9 431.3 L191.2 428.2 L189.5 425.1 L187.8 422.1 L186.1 419 L184.3 416 L182.6 412.9 L180.9 409.8 M203 444.8 L201.3 441.7 L199.6 438.6 L197.9 435.5 L196.2 432.5 L194.4 429.5 L192.7 426.4 L191 423.3 L189.3 420.3 M212.2 455.7 L210.4 452.6 L208.6 449.6 L206.8 446.5 L205.1 443.4 L203.3 440.3 L201.6 437.2 L199.8 434.1 L198.1 431.1 M220.5 466.1 L218.8 463 L217.1 459.9 L215.3 456.8 L213.5 453.7 L211.7 450.6 L210 447.5 L208.2 444.4 L206.5 441.3 M228.7 476.3 L226.9 473.2 L225.2 470 L223.4 466.8 L221.6 463.7 L219.9 460.5 L218.1 457.4 L216.3 454.2 L214.5 451.1 M237.6 487.4 L235.6 483.9 L233.7 480.5 L231.8 477 L229.8 473.6 L227.9 470.1 L225.9 466.7 L223.9 463.3 M247 498.8 L245.2 495.7 L243.5 492.5 L241.7 489.3 L240 486.1 L238.2 483 L236.4 479.9 L234.5 476.8 L232.7 473.6 M256.5 510.2 L254.7 507.1 L252.9 503.9 L251.1 500.7 L249.3 497.5 L247.4 494.4 L245.5 491.2 L243.6 488.1 L241.7 485 M264.5 520.6 L262.7 517.5 L261 514.4 L259.2 511.3 L257.5 508.2 L255.7 505.2 L253.9 502.1 L252.1 499.1 L250.3 496 M273.8 531.3 L272 528.1 L270.2 525 L268.3 521.8 L266.5 518.6 L264.7 515.4 L262.8 512.2 L260.9 509.1 L259 506 M282.6 541.8 L280.7 538.4 L278.7 534.9 L276.7 531.4 L274.7 528 L272.7 524.6 L270.7 521.2 L268.6 517.7 M284 540.6 L282.2 537.5 L280.4 534.5 L278.5 531.4 L276.7 528.4 M285.5 539.5 L284.7 538.1"></path><path class="cz-ln cz-w1" d="M88.1 439.2 L88.2 438.5 L88.2 437.9 L90 437.7 L91.7 437.5 L93.5 437.4 L95.3 437.2 L97 437 L98.8 436.8 L98.7 435.8 L98.6 434.8 L98.4 433.8 L96.7 434 L94.9 434.3 L93.2 434.5 L91.4 434.8 L89.6 435 L87.9 435.3 L87.7 434.6 L87.5 434 L87.5 434 L87.2 433.4 L86.9 432.9 L88.3 431.8 L89.8 430.8 L91.2 429.7 L92.7 428.7 L94.1 427.7 L95.5 426.6 L95 425.8 L94.4 425 L93.7 424.2 L92.3 425.3 L90.9 426.4 L89.5 427.5 L88.1 428.6 L86.8 429.7 L85.3 430.8 L84.8 430.3 L84.3 429.9 L84.3 429.9 L83.8 429.5 L83.2 429.1 L83.9 427.5 L84.7 425.9 L85.4 424.3 L86.1 422.6 L86.8 421 L87.5 419.4 L86.7 419 L85.7 418.6 L84.9 418.3 L84.2 419.9 L83.6 421.6 L82.9 423.2 L82.2 424.8 L81.6 426.5 L80.9 428.1 L80.2 428 L79.6 427.9 L79.6 427.9 L78.9 427.8 L78.2 427.8 L78.1 426 L77.9 424.2 L77.7 422.5 L77.5 420.7 L77.3 418.9 L77.2 417.2 L76.2 417.2 L75.1 417.4 L74.2 417.5 L74.4 419.3 L74.7 421 L74.9 422.8 L75.2 424.6 L75.4 426.3 L75.7 428.1 L75 428.3 L74.4 428.5 L74.4 428.5 L73.8 428.7 L73.2 429 L72.2 427.6 L71.2 426.2 L70.1 424.7 L69.1 423.3 L68 421.9 L67 420.4 L66.1 421 L65.3 421.6 L64.5 422.2 L65.6 423.7 L66.7 425.1 L67.8 426.5 L68.9 427.9 L70 429.3 L71.1 430.7 L70.6 431.1 L70.2 431.6 L70.2 431.6 L69.8 432.1 L69.5 432.6 L67.9 431.9 L66.3 431.2 L64.7 430.5 L63.1 429.7 L61.4 429 L59.8 428.3 L59.3 429.2 L58.9 430.2 L58.6 431.2 L60.2 431.8 L61.9 432.5 L63.5 433.2 L65.2 433.8 L66.8 434.5 L68.5 435.1 L68.3 435.7 L68.2 436.4 L68.2 436.4 L68.1 437 L68.1 437.7 L66.4 437.9 L64.6 438.1 L62.8 438.3 L61.1 438.4 L59.3 438.6 L57.6 438.8 L57.6 439.8 L57.8 440.8 L57.9 441.8 L59.7 441.5 L61.4 441.3 L63.2 441 L64.9 440.8 L66.7 440.5 L68.5 440.3 L68.6 440.9 L68.9 441.5 L68.9 441.5 L69.1 442.1 L69.4 442.7 L68 443.8 L66.6 444.8 L65.1 445.9 L63.7 446.9 L62.3 448 L60.8 449 L61.4 449.8 L62 450.6 L62.6 451.4 L64 450.3 L65.4 449.2 L66.8 448.1 L68.2 447 L69.6 445.9 L71 444.8 L71.5 445.2 L72 445.7 L72 445.7 L72.5 446 L73.1 446.4 L72.4 448.1 L71.7 449.7 L71 451.3 L70.2 452.9 L69.5 454.6 L68.8 456.2 L69.7 456.5 L70.6 456.9 L71.5 457.3 L72.1 455.7 L72.8 454 L73.5 452.4 L74.1 450.7 L74.8 449.1 L75.5 447.5 L76.1 447.6 L76.8 447.7 L76.8 447.7 L77.4 447.8 L78.1 447.8 L78.3 449.6 L78.4 451.4 L78.6 453.1 L78.8 454.9 L79 456.7 L79.2 458.4 L80.2 458.4 L81.2 458.3 L82.2 458.1 L82 456.3 L81.7 454.5 L81.5 452.8 L81.2 451 L81 449.3 L80.7 447.5 L81.3 447.4 L81.9 447.1 L81.9 447.1 L82.5 446.9 L83.1 446.6 L84.1 448 L85.2 449.4 L86.2 450.8 L87.3 452.3 L88.3 453.7 L89.3 455.2 L90.2 454.6 L91 454 L91.8 453.3 L90.7 451.9 L89.6 450.5 L88.5 449.1 L87.4 447.7 L86.3 446.3 L85.2 444.9 L85.7 444.5 L86.1 444 L86.1 444 L86.5 443.5 L86.8 442.9 L88.4 443.6 L90 444.4 L91.7 445.1 L93.3 445.8 L94.9 446.5 L96.5 447.3 L97 446.3 L97.4 445.4 L97.8 444.4 L96.1 443.7 L94.4 443.1 L92.8 442.4 L91.1 441.8 L89.5 441.1 L87.8 440.5 L88 439.8 L88.1 439.2 L88.1 439.2 Z" style="fill: var(--capa-faixa)"></path><path class="cz-ln cz-w2" d="M86.6 437.8 L86.6 437.3 L86.6 436.9 L86.5 436.5 L86.4 436 L86.3 435.6 L86.2 435.2 L86.1 434.8 L85.9 434.4 L85.7 434 L85.5 433.6 L85.3 433.2 L85 432.9 L84.8 432.5 L84.5 432.2 L84.2 431.8 L83.9 431.5 L83.5 431.3 L83.2 431 L82.8 430.7 L82.5 430.5 L82.1 430.3 L81.7 430.1 L81.3 429.9 L80.9 429.8 L80.4 429.6 L80 429.5 L79.6 429.4 L79.2 429.4 L78.7 429.3 L78.3 429.3 L77.8 429.3 L77.4 429.4 L77 429.4 L76.5 429.5 L76.1 429.6 L75.7 429.7 L75.3 429.8 L74.8 430 L74.4 430.2 L74.1 430.4 L73.7 430.6 L73.3 430.8 L73 431.1 L72.6 431.4 L72.3 431.7 L72 432 L71.7 432.3 L71.4 432.7 L71.2 433 L70.9 433.4 L70.7 433.8 L70.5 434.2 L70.3 434.6 L70.2 435 L70 435.4 L69.9 435.8 L69.8 436.3 L69.8 436.7 L69.7 437.1 L69.7 437.6 L69.7 438 L69.7 438.4 L69.8 438.9 L69.8 439.3 L69.9 439.7 L70 440.2 L70.2 440.6 L70.3 441 L70.5 441.4 L70.7 441.8 L70.9 442.2 L71.2 442.5 L71.4 442.9 L71.7 443.2 L72 443.6 L72.3 443.9 L72.6 444.2 L73 444.5 L73.3 444.7 L73.7 445 L74.1 445.2 L74.5 445.4 L74.9 445.6 L75.3 445.7 L75.7 445.9 L76.1 446 L76.5 446.1 L77 446.2 L77.4 446.2 L77.8 446.2 L78.3 446.2 L78.7 446.2 L79.2 446.2 L79.6 446.1 L80 446 L80.4 445.9 L80.9 445.8 L81.3 445.6 L81.7 445.5 L82.1 445.3 L82.5 445.1 L82.8 444.8 L83.2 444.6 L83.5 444.3 L83.9 444 L84.2 443.7 L84.5 443.4 L84.7 443.1 L85 442.7 L85.3 442.3 L85.5 442 L85.7 441.6 L85.9 441.2 L86 440.8 L86.2 440.4 L86.3 439.9 L86.4 439.5 L86.5 439.1 L86.5 438.7 L86.6 438.2 L86.6 437.8"></path><circle class="cz-fi" cx="78.2" cy="437.8" r="2.8"></circle><path class="cz-ln cz-w1" d="M185 401.9 L185.1 401.1 L185.2 400.2 L186.9 400 L188.7 399.8 L190.5 399.6 L192.2 399.4 L194 399.2 L195.7 399 L195.6 397.9 L195.5 396.8 L195.3 395.8 L193.6 396 L191.9 396.2 L190.1 396.5 L188.3 396.7 L186.6 396.9 L184.8 397.1 L184.5 396.3 L184.3 395.5 L184.3 395.6 L183.9 394.8 L183.6 394.1 L185 393 L186.4 391.9 L187.9 390.9 L189.3 389.8 L190.7 388.8 L192.1 387.7 L191.5 386.8 L190.8 385.9 L190.1 385 L188.7 386.1 L187.3 387.2 L185.9 388.3 L184.5 389.3 L183.1 390.4 L181.6 391.5 L181 390.9 L180.4 390.4 L180.4 390.4 L179.8 389.9 L179.1 389.5 L179.8 387.9 L180.5 386.2 L181.2 384.6 L181.9 383 L182.6 381.3 L183.3 379.7 L182.3 379.2 L181.3 378.8 L180.2 378.4 L179.5 380 L178.8 381.7 L178.1 383.3 L177.4 384.9 L176.8 386.6 L176.1 388.2 L175.3 388 L174.5 387.9 L174.5 387.9 L173.7 387.8 L172.9 387.8 L172.7 386 L172.5 384.2 L172.3 382.5 L172.1 380.7 L171.9 379 L171.7 377.2 L170.5 377.2 L169.4 377.3 L168.3 377.6 L168.5 379.4 L168.7 381.1 L168.9 382.9 L169.2 384.7 L169.4 386.4 L169.6 388.2 L168.9 388.4 L168.1 388.6 L168.1 388.6 L167.4 389 L166.7 389.4 L165.7 387.9 L164.6 386.5 L163.5 385.1 L162.5 383.7 L161.4 382.2 L160.3 380.8 L159.4 381.5 L158.5 382.1 L157.6 382.9 L158.7 384.3 L159.8 385.7 L160.9 387.1 L162 388.5 L163 389.9 L164.1 391.3 L163.6 391.9 L163 392.6 L163 392.6 L162.6 393.2 L162.1 393.9 L160.5 393.2 L158.8 392.5 L157.2 391.8 L155.6 391.1 L154 390.4 L152.3 389.7 L151.8 390.7 L151.4 391.7 L151 392.8 L152.6 393.4 L154.3 394.1 L155.9 394.8 L157.6 395.5 L159.2 396.2 L160.9 396.8 L160.7 397.7 L160.5 398.5 L160.5 398.5 L160.5 399.3 L160.4 400.1 L158.6 400.3 L156.9 400.5 L155.1 400.7 L153.3 400.9 L151.6 401.1 L149.8 401.3 L149.9 402.4 L150.1 403.5 L150.2 404.6 L152 404.4 L153.7 404.1 L155.5 403.9 L157.3 403.7 L159 403.4 L160.8 403.2 L161.1 404 L161.4 404.8 L161.4 404.8 L161.7 405.5 L162.1 406.3 L160.6 407.4 L159.2 408.4 L157.8 409.5 L156.3 410.6 L154.9 411.6 L153.5 412.7 L154.1 413.6 L154.8 414.5 L155.5 415.3 L156.9 414.2 L158.3 413.2 L159.7 412.1 L161.1 411 L162.5 410 L164 408.9 L164.5 409.4 L165.1 410 L165.1 410 L165.8 410.4 L166.5 410.9 L165.8 412.5 L165.1 414.1 L164.4 415.7 L163.7 417.4 L163 419 L162.3 420.7 L163.3 421.2 L164.3 421.6 L165.4 422 L166.1 420.3 L166.8 418.7 L167.4 417.1 L168.1 415.4 L168.8 413.8 L169.5 412.1 L170.3 412.3 L171.1 412.5 L171.1 412.5 L171.9 412.6 L172.7 412.6 L172.9 414.3 L173.1 416.1 L173.3 417.9 L173.5 419.6 L173.7 421.4 L173.9 423.2 L175 423.1 L176.2 423 L177.3 422.8 L177.1 421 L176.9 419.2 L176.6 417.5 L176.4 415.7 L176.2 413.9 L176 412.2 L176.7 412 L177.5 411.7 L177.5 411.7 L178.2 411.4 L178.9 411 L179.9 412.4 L181 413.9 L182 415.3 L183.1 416.7 L184.2 418.1 L185.2 419.6 L186.2 418.9 L187.1 418.3 L188 417.5 L186.9 416.1 L185.8 414.7 L184.7 413.2 L183.6 411.8 L182.6 410.4 L181.5 409 L182 408.4 L182.5 407.8 L182.5 407.8 L183 407.1 L183.5 406.5 L185.1 407.2 L186.7 407.9 L188.4 408.6 L190 409.3 L191.6 410 L193.3 410.7 L193.7 409.7 L194.2 408.6 L194.6 407.6 L192.9 406.9 L191.3 406.3 L189.6 405.6 L188 404.9 L186.4 404.2 L184.7 403.5 L184.9 402.7 L185 401.9 L185.1 401.9 Z" style="fill: var(--capa-faixa)"></path><path class="cz-ln cz-w2" d="M182.5 400.2 L182.5 399.7 L182.5 399.2 L182.4 398.7 L182.3 398.2 L182.2 397.7 L182 397.2 L181.9 396.7 L181.7 396.3 L181.5 395.8 L181.2 395.4 L181 394.9 L180.7 394.5 L180.4 394.1 L180 393.7 L179.7 393.4 L179.3 393 L179 392.7 L178.6 392.4 L178.1 392.1 L177.7 391.8 L177.3 391.6 L176.8 391.4 L176.4 391.2 L175.9 391 L175.4 390.8 L174.9 390.7 L174.4 390.6 L173.9 390.5 L173.4 390.5 L172.9 390.5 L172.4 390.5 L171.9 390.5 L171.4 390.6 L170.9 390.7 L170.4 390.8 L169.9 390.9 L169.5 391.1 L169 391.2 L168.5 391.5 L168.1 391.7 L167.7 391.9 L167.2 392.2 L166.8 392.5 L166.4 392.8 L166.1 393.2 L165.7 393.5 L165.4 393.9 L165.1 394.3 L164.8 394.7 L164.5 395.1 L164.2 395.6 L164 396 L163.8 396.5 L163.6 397 L163.5 397.4 L163.4 397.9 L163.3 398.4 L163.2 398.9 L163.1 399.4 L163.1 399.9 L163.1 400.4 L163.1 400.9 L163.2 401.4 L163.2 401.9 L163.4 402.4 L163.5 402.9 L163.6 403.4 L163.8 403.9 L164 404.3 L164.2 404.8 L164.5 405.2 L164.8 405.6 L165.1 406.1 L165.4 406.4 L165.7 406.8 L166.1 407.2 L166.4 407.5 L166.8 407.8 L167.2 408.2 L167.6 408.4 L168.1 408.7 L168.5 408.9 L169 409.1 L169.5 409.3 L169.9 409.5 L170.4 409.6 L170.9 409.7 L171.4 409.8 L171.9 409.9 L172.4 409.9 L172.9 409.9 L173.4 409.9 L173.9 409.8 L174.4 409.8 L174.9 409.7 L175.4 409.5 L175.9 409.4 L176.4 409.2 L176.8 409 L177.3 408.8 L177.7 408.6 L178.2 408.3 L178.6 408 L179 407.7 L179.3 407.4 L179.7 407 L180.1 406.6 L180.4 406.3 L180.7 405.9 L181 405.4 L181.2 405 L181.5 404.6 L181.7 404.1 L181.9 403.6 L182 403.2 L182.2 402.7 L182.3 402.2 L182.4 401.7 L182.5 401.2 L182.5 400.7 L182.5 400.2"></path><circle class="cz-fi" cx="172.8" cy="400.2" r="2.8"></circle><path class="cz-ln cz-w3" d="M138.7 426.1 L138.7 427.4 L138.7 428.7 L138.7 430.1 L137.7 430.8 L136.7 431.5 L136.3 430.8 L135.8 430 L136.5 429.2 L137.2 428.4 L137.8 427.5 L139 427.4 L140.1 427.2 L141.3 427 L142.4 426.9 L143.6 427.5 L144.7 428.1 L145.8 428.8 L147 429.4 L147.5 430.5 L148 431.6 L148.5 432.6 L149 433.7 L148.7 434.8 L148.4 436 L148.1 437.1 L147.1 437.3 L146.2 437.5 L146.1 436.4 L146.1 435.3 L147.1 434.6 L148.1 433.9 L149.2 433.2 L150.4 433.3 L151.6 433.4 L152.8 433.5 L154.1 433.6 L155 434.4 L156 435.3 L157 436.1 L158 436.9 L158.3 438.4 L158.6 439.8 L158.9 441.3 L158.2 442.5 L157.4 443.7 L156.6 443.4 L155.8 443.1 L156.3 441.9 L156.8 440.7 L158.1 440.2 L159.4 439.7 L160.7 439.2 L161.9 439.5 L163.1 439.9 L164.4 440.3 L165.6 440.6 L166.3 441.6 L167.1 442.6 L167.9 443.6 L168.6 444.6 L168.6 445.9 L168.6 447.2 L168.6 448.6 L167.6 449.3 L166.7 450 L166.2 449.3 L165.8 448.5 L166.4 447.7 L167.1 446.9 L167.8 446.1 L168.9 445.9 L170.1 445.8 L171.2 445.6 L172.3 445.5 L173.5 446.1 L174.6 446.7 L175.8 447.3 L176.9 447.9 L177.4 449 L177.9 450.1 L178.4 451.2 L178.9 452.2 L178.6 453.4 L178.3 454.5 L178 455.6 L177.1 455.8 L176.1 456 L176.1 454.9 L176.1 453.9 L177.1 453.1 L178.1 452.4 L179.1 451.7 L180.3 451.8 L181.5 451.9 L182.8 452 L184 452.1 L185 453 L185.9 453.8 L186.9 454.6 L187.9 455.5 L188.2 456.9 L188.5 458.3 L188.9 459.8 L188.1 461 L187.3 462.2 L186.5 461.9 L185.8 461.6 L186.2 460.4 L186.7 459.2 L188 458.7 L189.3 458.2 L190.6 457.7 L191.9 458 L193.1 458.4 L194.3 458.8 L195.5 459.1 L196.3 460.1 L197.1 461.1 L197.8 462.1 L198.6 463.1 L198.6 464.4 L198.5 465.8 L198.5 467.1 L197.6 467.8 L196.6 468.6 L196.1 467.8 L195.7 467.1 L196.4 466.2 L197 465.4 L197.7 464.6 L198.9 464.4 L200 464.3 L201.1 464.1 L202.3 463.9 L203.4 464.6 L204.6 465.2 L205.7 465.8 L206.9 466.4 L207.4 467.5 L207.9 468.6 L208.4 469.7 L208.9 470.8 L208.6 471.9 L208.3 473 L208 474.1 L207 474.3 L206 474.5 L206 473.4 L206 472.4 L207 471.6 L208 470.9 L209 470.2 L210.3 470.3 L211.5 470.4 L212.7 470.5 L213.9 470.6 L214.9 471.5 L215.9 472.3 L216.9 473.1 L217.9 474 L218.2 475.4 L218.5 476.9 L218.8 478.3 L218 479.5 L217.2 480.8 L216.5 480.5 L215.7 480.1 L216.2 478.9 L216.6 477.7 L218 477.2 L219.3 476.7 L220.6 476.2 L221.8 476.6 L223 476.9 L224.2 477.3 L225.4 477.7 L226.2 478.7 L227 479.6 L227.7 480.6 L228.5 481.6"></path></svg>